<svg width="430" height="72" viewBox="0 0 430 72" fill="none" xmlns="http://www.w3.org/2000/svg">
<g filter="url(#filter0_di_8_19)">
<path d="M25.789 22.257C26.275 25.119 26.572 28.251 26.68 31.653C26.788 35.055 26.896 38.187 27.004 41.049C27.004 41.211 26.977 41.508 26.923 41.94C26.923 42.372 26.815 42.615 26.599 42.669C26.491 42.669 26.356 42.453 26.194 42.021C26.032 41.535 25.924 41.211 25.87 41.049C25.654 40.401 25.438 39.645 25.222 38.781C25.06 37.917 24.898 37.053 24.736 36.189C24.574 35.271 24.439 34.38 24.331 33.516C24.223 32.598 24.142 31.761 24.088 31.005C24.088 30.843 24.034 30.384 23.926 29.628C23.872 28.872 23.764 28.008 23.602 27.036C23.44 26.01 23.251 24.93 23.035 23.796C22.819 22.608 22.576 21.474 22.306 20.394C22.306 22.662 22.252 24.903 22.144 27.117C22.09 29.277 22.144 31.464 22.306 33.678C22.414 35.082 22.576 36.459 22.792 37.809C23.008 39.105 23.251 40.428 23.521 41.778C23.899 43.668 24.466 45.558 25.222 47.448C25.978 49.338 26.869 51.12 27.895 52.794C28.975 54.468 30.19 56.007 31.54 57.411C32.944 58.761 34.456 59.841 36.076 60.651C36.346 60.759 36.454 60.894 36.4 61.056C36.4 61.164 36.292 61.191 36.076 61.137C33.862 60.651 31.918 59.76 30.244 58.464C28.57 57.114 27.085 55.521 25.789 53.685C24.547 51.849 23.521 49.851 22.711 47.691C21.901 45.531 21.28 43.371 20.848 41.211C20.686 40.293 20.524 39.375 20.362 38.457C20.2 37.539 20.065 36.621 19.957 35.703C19.147 38.295 18.256 40.833 17.284 43.317C16.366 45.801 15.475 48.177 14.611 50.445C13.747 52.713 12.991 54.9 12.343 57.006C11.695 59.112 11.209 61.11 10.885 63C10.831 63.054 10.804 63.108 10.804 63.162C10.696 63.27 10.642 63.324 10.642 63.324C10.48 63.324 10.399 63.216 10.399 63C10.021 60.516 10.102 57.978 10.642 55.386C11.236 52.74 12.019 50.04 12.991 47.286C14.017 44.532 15.097 41.724 16.231 38.862C17.365 35.946 18.31 33.003 19.066 30.033C19.552 28.197 19.903 26.253 20.119 24.201C20.335 22.095 20.389 20.043 20.281 18.045C20.173 15.993 19.822 14.022 19.228 12.132C18.688 10.242 17.905 8.514 16.879 6.948C16.609 6.624 16.528 6.408 16.636 6.3C16.744 6.192 16.906 6.192 17.122 6.3C17.338 6.408 17.527 6.543 17.689 6.705C18.769 7.785 19.714 8.838 20.524 9.864C21.388 10.836 22.144 11.916 22.792 13.104C23.44 14.292 24.007 15.615 24.493 17.073C24.979 18.531 25.411 20.259 25.789 22.257ZM35.59 41.13C35.914 39.564 36.211 38.187 36.481 36.999C36.751 35.811 37.048 34.677 37.372 33.597C37.75 32.517 38.155 31.437 38.587 30.357C39.073 29.223 39.667 27.981 40.369 26.631C40.477 26.469 40.639 26.199 40.855 25.821C41.125 25.389 41.341 25.2 41.503 25.254C41.611 25.254 41.638 25.497 41.584 25.983C41.53 26.469 41.476 26.793 41.422 26.955C41.26 27.657 41.044 28.467 40.774 29.385C40.558 30.303 40.315 31.275 40.045 32.301C39.775 33.273 39.505 34.245 39.235 35.217C38.965 36.189 38.749 37.026 38.587 37.728C38.371 38.646 38.128 39.78 37.858 41.13C37.642 42.426 37.399 43.884 37.129 45.504C36.913 47.124 36.724 48.852 36.562 50.688C36.454 52.524 36.427 54.414 36.481 56.358C35.995 56.088 35.482 55.764 34.942 55.386C34.456 54.954 33.97 54.36 33.484 53.604C32.35 51.984 31.459 50.283 30.811 48.501C30.217 46.665 29.731 44.775 29.353 42.831C28.975 40.887 28.705 38.916 28.543 36.918C28.381 34.866 28.192 32.868 27.976 30.924C27.706 28.386 27.463 25.821 27.247 23.229C27.031 20.637 26.464 17.964 25.546 15.21C25.438 14.94 25.357 14.805 25.303 14.805C25.303 14.751 25.357 14.697 25.465 14.643C25.627 14.643 25.789 14.778 25.951 15.048C26.653 15.75 27.247 16.776 27.733 18.126C28.273 19.422 28.732 20.88 29.11 22.5C29.542 24.12 29.893 25.848 30.163 27.684C30.487 29.466 30.757 31.221 30.973 32.949C31.189 34.623 31.378 36.189 31.54 37.647C31.756 39.051 31.945 40.212 32.107 41.13C32.485 37.998 32.89 35.217 33.322 32.787C33.754 30.303 34.213 28.305 34.699 26.793C35.131 25.443 35.644 24.039 36.238 22.581C36.832 21.123 37.48 19.692 38.182 18.288C38.884 16.83 39.586 15.453 40.288 14.157C41.044 12.861 41.746 11.727 42.394 10.755C42.556 10.485 42.718 10.242 42.88 10.026C43.042 9.81 43.177 9.756 43.285 9.864C43.393 9.972 43.393 10.161 43.285 10.431C43.231 10.647 43.15 10.89 43.042 11.16C42.34 13.266 41.665 15.156 41.017 16.83C40.423 18.504 39.802 20.151 39.154 21.771C38.56 23.391 37.993 25.092 37.453 26.874C36.913 28.602 36.373 30.546 35.833 32.706C35.509 34.11 35.131 35.595 34.699 37.161C34.267 38.727 33.916 40.347 33.646 42.021C33.43 43.641 33.349 45.315 33.403 47.043C33.511 48.717 33.916 50.364 34.618 51.984C34.564 51.066 34.564 50.04 34.618 48.906C34.672 47.718 34.753 46.611 34.861 45.585C35.023 44.505 35.158 43.56 35.266 42.75C35.428 41.94 35.536 41.4 35.59 41.13ZM33.97 56.034C34.564 56.682 35.185 57.276 35.833 57.816C36.481 58.302 37.183 58.761 37.939 59.193C37.507 56.763 37.426 54.252 37.696 51.66C37.966 49.014 38.425 46.341 39.073 43.641C39.721 40.941 40.477 38.241 41.341 35.541C42.205 32.841 43.042 30.195 43.852 27.603C45.04 23.823 45.985 19.908 46.687 15.858C47.443 11.754 47.875 7.677 47.983 3.627C47.983 3.195 48.01 2.979 48.064 2.979C48.226 2.979 48.307 3.114 48.307 3.384C48.793 5.706 49.063 7.974 49.117 10.188C49.171 12.348 49.063 14.508 48.793 16.668C48.523 18.774 48.145 20.88 47.659 22.986C47.173 25.092 46.606 27.225 45.958 29.385C45.148 32.301 44.311 35.244 43.447 38.214C42.583 41.13 41.8 44.019 41.098 46.881C40.45 49.689 39.964 52.47 39.64 55.224C39.316 57.924 39.262 60.489 39.478 62.919C39.478 63.135 39.424 63.243 39.316 63.243C39.208 63.243 39.127 63.189 39.073 63.081C39.073 63.027 39.046 62.973 38.992 62.919C38.776 62.379 38.641 62.082 38.587 62.028C38.587 61.974 38.506 61.677 38.344 61.137C38.236 60.705 38.074 60.408 37.858 60.246C37.642 60.084 37.48 59.976 37.372 59.922C36.454 59.598 35.671 59.301 35.023 59.031C34.375 58.761 33.511 58.086 32.431 57.006C31.999 56.574 31.54 55.98 31.054 55.224C30.568 54.468 30.136 53.739 29.758 53.037C29.38 52.281 29.11 51.633 28.948 51.093C28.786 50.499 28.786 50.175 28.948 50.121C29.002 50.121 29.137 50.229 29.353 50.445C29.569 50.607 29.785 50.823 30.001 51.093C30.217 51.309 30.406 51.552 30.568 51.822C30.784 52.092 30.919 52.254 30.973 52.308C31.945 53.766 32.944 55.008 33.97 56.034ZM10.237 29.061C10.885 26.577 11.641 24.039 12.505 21.447C13.423 18.855 14.179 16.533 14.773 14.481C14.881 14.211 14.962 13.968 15.016 13.752C15.124 13.536 15.232 13.455 15.34 13.509C15.448 13.509 15.502 13.644 15.502 13.914C15.502 14.184 15.502 14.454 15.502 14.724C15.556 18.666 15.043 22.608 13.963 26.55C12.883 30.492 11.668 34.38 10.318 38.214C9.454 40.644 8.59 43.128 7.726 45.666C6.862 48.15 6.214 50.85 5.782 53.766C5.728 54.036 5.701 54.198 5.701 54.252C5.701 54.252 5.647 54.252 5.539 54.252C5.485 54.252 5.404 54.063 5.296 53.685C4.972 52.227 4.972 50.391 5.296 48.177C5.674 45.963 6.16 43.668 6.754 41.292C7.348 38.862 7.996 36.567 8.698 34.407C9.4 32.193 9.913 30.411 10.237 29.061ZM8.698 46.314C9.67 43.56 10.75 40.698 11.938 37.728C13.18 34.704 14.422 31.842 15.664 29.142C15.718 29.034 15.853 28.791 16.069 28.413C16.285 28.035 16.447 27.846 16.555 27.846C16.663 27.9 16.717 28.143 16.717 28.575C16.771 29.007 16.744 29.304 16.636 29.466C16.528 30.114 16.366 30.924 16.15 31.896C15.988 32.814 15.772 33.786 15.502 34.812C15.232 35.784 14.962 36.729 14.692 37.647C14.422 38.565 14.179 39.348 13.963 39.996C13.801 40.482 13.423 41.67 12.829 43.56C12.289 45.45 11.722 47.556 11.128 49.878C10.534 52.146 9.994 54.36 9.508 56.52C9.076 58.68 8.914 60.273 9.022 61.299C9.022 61.785 8.941 62.028 8.779 62.028C8.725 62.028 8.644 61.947 8.536 61.785C8.482 61.569 8.401 61.407 8.293 61.299C7.861 60.381 7.564 59.274 7.402 57.978C7.294 56.682 7.267 55.332 7.321 53.928C7.429 52.524 7.591 51.174 7.807 49.878C8.077 48.528 8.374 47.34 8.698 46.314ZM44.824 8.811C45.04 7.731 45.202 6.705 45.31 5.733C45.418 4.707 45.526 3.627 45.634 2.493C45.634 2.385 45.661 2.277 45.715 2.169C45.769 2.007 45.85 1.926 45.958 1.926C46.012 1.926 46.12 2.061 46.282 2.331C46.336 2.439 46.363 2.547 46.363 2.65499C46.525 3.195 46.633 3.681 46.687 4.113C46.795 4.545 46.849 5.004 46.849 5.49C46.903 5.976 46.903 6.543 46.849 7.191C46.849 7.785 46.768 8.487 46.606 9.297C46.498 9.945 46.309 10.728 46.039 11.646C45.823 12.564 45.58 13.455 45.31 14.319C45.04 15.129 44.77 15.831 44.5 16.425C44.284 16.965 44.095 17.208 43.933 17.154C43.825 17.154 43.771 17.019 43.771 16.749C43.771 16.425 43.798 16.101 43.852 15.777C43.906 15.399 43.96 15.021 44.014 14.643C44.068 14.265 44.095 13.968 44.095 13.752L44.824 8.811ZM16.393 12.213C16.177 11.295 15.907 10.404 15.583 9.54C15.313 8.676 14.935 7.866 14.449 7.11C14.233 6.786 14.179 6.597 14.287 6.543C14.395 6.543 14.557 6.597 14.773 6.705L15.097 6.867C15.799 7.515 16.393 8.163 16.879 8.811C17.419 9.459 17.851 10.539 18.175 12.051C18.337 12.645 18.445 13.401 18.499 14.319C18.553 15.183 18.553 16.047 18.499 16.911C18.499 17.775 18.445 18.504 18.337 19.098C18.229 19.692 18.067 19.962 17.851 19.908C17.743 19.908 17.662 19.773 17.608 19.503C17.554 19.233 17.5 18.936 17.446 18.612C17.392 18.234 17.338 17.883 17.284 17.559C17.23 17.235 17.203 17.019 17.203 16.911C17.095 16.047 16.987 15.237 16.879 14.481C16.771 13.725 16.609 12.969 16.393 12.213ZM48.9506 44.451C48.7886 44.829 48.6806 44.91 48.6266 44.694C48.6266 44.424 48.6536 44.235 48.7076 44.127C49.0856 42.021 49.8416 40.32 50.9756 39.024C51.1916 37.188 51.5696 35.244 52.1096 33.192C52.7036 31.086 53.3246 28.98 53.9726 26.874C54.6206 24.768 55.2416 22.716 55.8356 20.718C56.4836 18.666 57.0236 16.776 57.4556 15.048C56.2136 15.048 55.0256 14.967 53.8916 14.805C53.4596 14.697 53.2436 14.643 53.2436 14.643C53.1896 14.481 53.3786 14.292 53.8106 14.076C55.9166 12.996 58.1846 12.429 60.6146 12.375C63.0446 12.267 65.4746 12.321 67.9046 12.537C69.4706 12.645 71.0366 12.726 72.6026 12.78C74.1686 12.834 75.8156 12.591 77.5436 12.051C77.8136 11.997 77.9486 12.051 77.9486 12.213C77.9486 12.321 77.8676 12.456 77.7056 12.618C77.1116 13.32 76.3286 13.86 75.3566 14.238C74.4386 14.562 73.4126 14.805 72.2786 14.967C71.1446 15.129 69.9836 15.21 68.7956 15.21C67.6616 15.21 66.5816 15.21 65.5556 15.21C65.8256 16.506 65.9336 18.018 65.8796 19.746C65.8256 21.42 65.6636 23.175 65.3936 25.011C65.1776 26.847 64.8536 28.683 64.4216 30.519C64.0436 32.355 63.6656 34.056 63.2876 35.622C65.3396 35.892 67.2836 36.108 69.1196 36.27C71.0096 36.378 72.7106 36 74.2226 35.136C74.3846 35.082 74.4656 35.109 74.4656 35.217C74.4656 35.379 74.4386 35.514 74.3846 35.622C73.4126 36.918 72.3056 37.782 71.0636 38.214C69.8216 38.592 68.5256 38.754 67.1756 38.7C65.8256 38.592 64.4216 38.403 62.9636 38.133C61.5056 37.863 60.1016 37.728 58.7516 37.728C57.0236 37.728 55.2416 38.241 53.4056 39.267C51.6236 40.239 50.1386 41.967 48.9506 44.451ZM56.8076 54.657C56.8616 53.307 56.9426 51.903 57.0506 50.445C57.1586 48.987 57.3476 47.556 57.6176 46.152C57.4016 46.098 56.8886 46.017 56.0786 45.909C55.3226 45.747 54.5666 45.639 53.8106 45.585C53.1086 45.531 52.6496 45.639 52.4336 45.909C52.2716 46.125 52.1636 46.557 52.1096 47.205C51.8396 49.959 51.9476 52.686 52.4336 55.386C52.9196 58.086 53.7296 60.516 54.8636 62.676C54.9716 62.838 54.9986 62.973 54.9446 63.081C54.8906 63.189 54.7826 63.162 54.6206 63C52.8386 60.84 51.6236 58.68 50.9756 56.52C50.3276 54.306 49.9496 51.957 49.8416 49.473C49.7876 48.393 50.0036 47.394 50.4896 46.476C51.0296 45.558 51.8396 44.856 52.9196 44.37C54.7016 43.614 56.4836 43.29 58.2656 43.398C60.0476 43.506 61.9106 43.668 63.8546 43.884C64.9886 43.992 66.1766 44.1 67.4186 44.208C68.7146 44.262 69.9836 43.992 71.2256 43.398C71.3876 43.29 71.4956 43.263 71.5496 43.317C71.6036 43.371 71.6036 43.452 71.5496 43.56C71.4956 43.668 71.4416 43.776 71.3876 43.884C70.9016 44.748 70.1726 45.369 69.2006 45.747C68.2826 46.125 67.2836 46.368 66.2036 46.476C65.1236 46.584 64.0436 46.611 62.9636 46.557C61.9376 46.503 61.0736 46.476 60.3716 46.476C59.8856 48.096 59.3726 49.608 58.8326 51.012C58.2926 52.416 57.8336 53.712 57.4556 54.9C57.2396 55.602 57.0776 55.926 56.9696 55.872C56.8616 55.818 56.8076 55.683 56.8076 55.467C56.8076 55.197 56.8076 54.927 56.8076 54.657ZM49.2746 14.967C49.1666 15.345 49.0586 15.453 48.9506 15.291C48.8966 15.075 48.8966 14.886 48.9506 14.724C49.2206 12.78 49.7876 11.133 50.6516 9.783C51.5156 8.433 52.5416 7.353 53.7296 6.543C54.9176 5.679 56.2136 5.058 57.6176 4.68C59.0216 4.248 60.4256 4.005 61.8296 3.951C63.7196 3.897 65.5826 3.978 67.4186 4.194C69.2546 4.356 71.0366 4.518 72.7646 4.68C74.5466 4.842 76.2206 4.923 77.7866 4.923C79.4066 4.869 80.9186 4.599 82.3226 4.113C82.4846 4.059 82.5656 4.086 82.5656 4.194L82.3226 4.51799C80.9186 5.76 79.3796 6.543 77.7056 6.867C76.0316 7.191 74.2766 7.326 72.4406 7.272C70.6586 7.164 68.8226 7.002 66.9326 6.786C65.0426 6.516 63.1796 6.435 61.3436 6.543C60.1556 6.597 58.9406 6.813 57.6986 7.191C56.4566 7.569 55.2956 8.109 54.2156 8.811C53.1356 9.459 52.1636 10.296 51.2996 11.322C50.4356 12.348 49.7606 13.563 49.2746 14.967ZM72.8456 11.727C71.1176 11.619 69.2546 11.403 67.2566 11.079C65.3126 10.755 63.4766 10.377 61.7486 9.945C61.6406 9.945 61.4246 9.891 61.1006 9.783C60.8306 9.675 60.6956 9.54 60.6956 9.378C60.6956 9.27 60.8036 9.189 61.0196 9.135C61.2896 9.027 61.4786 8.973 61.5866 8.973C61.9646 8.865 62.4236 8.784 62.9636 8.73C63.5576 8.622 64.1516 8.541 64.7456 8.487C65.3936 8.433 66.0146 8.406 66.6086 8.406C67.2026 8.406 67.7156 8.406 68.1476 8.406C68.9576 8.46 69.9836 8.487 71.2256 8.487C72.5216 8.487 73.8176 8.433 75.1136 8.325C76.4096 8.163 77.5976 7.974 78.6776 7.758C79.8116 7.488 80.6756 7.137 81.2696 6.705C81.5396 6.435 81.6746 6.408 81.6746 6.624C81.6746 6.732 81.6206 6.84 81.5126 6.948C81.4586 7.056 81.4046 7.164 81.3506 7.272C80.9186 8.028 80.3516 8.703 79.6496 9.297C78.9476 9.837 78.1916 10.323 77.3816 10.755C76.5716 11.133 75.7616 11.403 74.9516 11.565C74.1956 11.727 73.4936 11.781 72.8456 11.727ZM67.5806 43.155C66.1766 43.047 64.7186 42.804 63.2066 42.426C61.7486 42.048 60.3176 41.616 58.9136 41.13C58.8596 41.13 58.7246 41.076 58.5086 40.968C58.3466 40.86 58.2656 40.725 58.2656 40.563C58.2656 40.455 58.4006 40.347 58.6706 40.239C58.9406 40.131 59.2106 40.05 59.4806 39.996C59.9126 39.888 60.5336 39.807 61.3436 39.753C62.1536 39.645 62.9096 39.645 63.6116 39.753C64.4756 39.861 65.4206 39.942 66.4466 39.996C67.4726 39.996 68.4446 39.942 69.3626 39.834C70.2806 39.672 71.1176 39.429 71.8736 39.105C72.6296 38.781 73.1966 38.376 73.5746 37.89C73.6286 37.728 73.7366 37.647 73.8986 37.647H73.9796C74.0336 37.755 74.0336 37.89 73.9796 38.052C73.9796 38.214 73.9526 38.349 73.8986 38.457C73.3046 40.023 72.3596 41.211 71.0636 42.021C69.7676 42.831 68.6066 43.209 67.5806 43.155ZM58.1846 28.575C58.2386 28.305 58.4006 27.738 58.6706 26.874C58.9946 25.956 59.3456 24.876 59.7236 23.634C60.1016 22.392 60.4526 21.042 60.7766 19.584C61.1546 18.126 61.4246 16.668 61.5866 15.21H59.7236C59.2916 18.612 58.4546 22.095 57.2126 25.659C56.0246 29.169 54.9446 32.733 53.9726 36.351C54.4046 36.135 54.8096 35.946 55.1876 35.784C55.6196 35.622 56.0516 35.487 56.4836 35.379C56.7536 34.191 57.0236 33.003 57.2936 31.815C57.6176 30.573 57.9146 29.493 58.1846 28.575ZM62.4776 22.743C61.8836 25.011 61.3166 27.117 60.7766 29.061C60.2906 30.951 59.6426 32.976 58.8326 35.136H59.0756C59.2376 35.136 59.3996 35.136 59.5616 35.136C59.7776 35.136 60.0206 35.19 60.2906 35.298C60.5066 34.434 60.7496 33.624 61.0196 32.868C61.2896 32.058 61.5596 31.194 61.8296 30.276C62.4776 28.008 63.0716 25.74 63.6116 23.472C64.1516 21.15 64.5296 18.396 64.7456 15.21H63.1256C63.1256 16.452 63.0716 17.802 62.9636 19.26C62.9096 20.664 62.7476 21.825 62.4776 22.743ZM55.8356 57.249C55.9976 58.167 56.2136 59.085 56.4836 60.003C56.7536 60.867 57.0506 61.758 57.3746 62.676C57.4286 62.784 57.4556 62.919 57.4556 63.081C57.5096 63.297 57.4826 63.405 57.3746 63.405C57.2666 63.405 57.1316 63.351 56.9696 63.243C56.8076 63.135 56.6726 63.027 56.5646 62.919C55.9166 62.109 55.3766 61.353 54.9446 60.651C54.5666 59.949 54.2426 58.815 53.9726 57.249C53.8646 56.655 53.7836 55.899 53.7296 54.981C53.7296 54.063 53.7566 53.172 53.8106 52.308C53.8646 51.444 53.9456 50.715 54.0536 50.121C54.2156 49.527 54.4046 49.23 54.6206 49.23C54.6746 49.23 54.7286 49.365 54.7826 49.635C54.8906 49.905 54.9716 50.229 55.0256 50.607C55.0796 50.931 55.1066 51.282 55.1066 51.66C55.1606 51.984 55.1876 52.2 55.1876 52.308C55.2956 53.226 55.3766 54.09 55.4306 54.9C55.5386 55.71 55.6736 56.493 55.8356 57.249ZM52.2716 13.914C51.8396 14.454 51.4346 14.994 51.0566 15.534C50.7326 16.02 50.4356 16.56 50.1656 17.154C50.1116 17.262 50.0306 17.316 49.9226 17.316C49.8146 17.262 49.7876 17.019 49.8416 16.587C49.9496 15.669 50.0846 14.913 50.2466 14.319C50.4086 13.725 50.8676 13.05 51.6236 12.294C51.8936 11.97 52.2716 11.673 52.7576 11.403C53.2436 11.079 53.7026 10.809 54.1346 10.593C54.5666 10.377 54.9446 10.242 55.2686 10.188C55.6466 10.134 55.8626 10.215 55.9166 10.431C55.9706 10.593 55.7816 10.863 55.3496 11.241C54.9716 11.619 54.6746 11.862 54.4586 11.97C53.5946 12.618 52.8656 13.266 52.2716 13.914ZM49.3556 46.881C49.2476 47.097 49.1396 47.151 49.0316 47.043C48.9776 46.989 48.9776 46.719 49.0316 46.233C49.2476 45.477 49.4906 44.802 49.7606 44.208C50.0306 43.56 50.4626 42.939 51.0566 42.345C51.2726 42.129 51.5966 41.913 52.0286 41.697C52.5146 41.481 52.9466 41.319 53.3246 41.211C53.7566 41.049 54.1076 40.968 54.3776 40.968C54.6476 40.914 54.7286 40.968 54.6206 41.13C54.2966 41.562 53.8646 42.021 53.3246 42.507C52.8386 42.993 52.3256 43.506 51.7856 44.046C51.2996 44.586 50.8136 45.099 50.3276 45.585C49.8956 46.071 49.5716 46.503 49.3556 46.881ZM101.469 21.852C100.713 24.768 99.7679 27.792 98.6339 30.924C97.5539 34.056 96.4199 37.026 95.2319 39.834C95.1779 39.942 95.0429 40.212 94.8269 40.644C94.6109 41.022 94.4489 41.184 94.3409 41.13C94.1789 41.13 94.0979 40.914 94.0979 40.482C94.1519 39.996 94.2059 39.672 94.2599 39.51C94.3139 38.862 94.4219 38.052 94.5839 37.08C94.7459 36.108 94.9079 35.109 95.0699 34.083C95.2859 33.057 95.5019 32.058 95.7179 31.086C95.9879 30.114 96.2309 29.277 96.4469 28.575C96.5549 28.359 96.7169 27.819 96.9329 26.955C97.1489 26.091 97.3649 25.065 97.5809 23.877C97.8509 22.635 98.1209 21.285 98.3909 19.827C98.6609 18.369 98.9039 16.938 99.1199 15.534L98.1479 15.291C97.8779 17.181 97.4729 19.125 96.9329 21.123C96.4469 23.067 95.8799 25.038 95.2319 27.036C94.6379 28.98 94.0439 30.978 93.4499 33.03C92.8559 35.028 92.3159 37.026 91.8299 39.024C91.3979 40.914 91.0739 42.885 90.8579 44.937C90.6419 46.989 90.5609 49.068 90.6149 51.174C90.6689 53.226 90.9119 55.251 91.3439 57.249C91.7759 59.193 92.4239 61.002 93.2879 62.676C93.4499 63.054 93.5039 63.243 93.4499 63.243C93.3419 63.243 93.2609 63.216 93.2069 63.162L93.0449 63C91.5329 61.218 90.3989 59.301 89.6429 57.249C88.9409 55.143 88.4819 52.983 88.2659 50.769C88.1039 48.555 88.1579 46.314 88.4279 44.046C88.6979 41.778 89.0759 39.564 89.5619 37.404C90.4799 33.408 91.5599 29.574 92.8019 25.902C94.0439 22.176 95.0969 18.531 95.9609 14.967C92.7209 14.427 89.6699 13.941 86.8079 13.509C83.9999 13.023 81.3809 13.023 78.9509 13.509C78.7889 13.509 78.7079 13.482 78.7079 13.428C78.7079 13.32 78.7349 13.266 78.7889 13.266C78.8969 13.212 78.9779 13.158 79.0319 13.104C80.8679 12.024 82.8119 11.43 84.8639 11.322C86.9699 11.214 89.1299 11.322 91.3439 11.646C93.6119 11.916 95.9069 12.294 98.2289 12.78C100.605 13.212 102.981 13.455 105.357 13.509C106.815 13.563 108.327 13.455 109.893 13.185C111.513 12.861 113.052 12.402 114.51 11.808C116.022 11.16 117.372 10.323 118.56 9.297C119.802 8.271 120.801 7.056 121.557 5.652C121.665 5.382 121.773 5.247 121.881 5.247V5.49V5.652C121.287 7.704 120.369 9.405 119.127 10.755C117.885 12.051 116.454 13.104 114.834 13.914C113.268 14.724 111.567 15.291 109.731 15.615C107.949 15.885 106.194 15.993 104.466 15.939C104.736 17.613 104.736 19.557 104.466 21.771C104.25 23.985 103.899 26.226 103.413 28.494C102.927 30.762 102.414 32.922 101.874 34.974C101.334 36.972 100.902 38.592 100.578 39.834C99.9299 42.426 99.1739 45.072 98.3099 47.772C97.4459 50.472 96.6629 52.848 95.9609 54.9C95.8529 55.17 95.7179 55.413 95.5559 55.629C95.4479 55.845 95.3399 55.926 95.2319 55.872C95.1239 55.818 95.0699 55.683 95.0699 55.467C95.1239 55.197 95.1509 54.927 95.1509 54.657C95.3129 50.607 95.9069 46.557 96.9329 42.507C97.9589 38.457 99.0659 34.38 100.254 30.276C100.902 28.008 101.523 25.713 102.117 23.391C102.765 21.069 103.224 18.585 103.494 15.939C103.224 15.885 102.981 15.858 102.765 15.858C102.603 15.858 102.387 15.858 102.117 15.858C102.117 16.938 102.063 17.991 101.955 19.017C101.901 20.043 101.739 20.988 101.469 21.852ZM103.656 4.599C105.762 4.869 107.895 5.085 110.055 5.247C112.215 5.409 114.078 5.49 115.644 5.49C116.184 5.49 116.454 5.571 116.454 5.733C116.454 5.949 116.184 6.138 115.644 6.3C112.89 7.38 109.974 7.866 106.896 7.758C103.872 7.65 100.794 7.353 97.6619 6.867C95.7719 6.597 93.8279 6.327 91.8299 6.057C89.8319 5.787 87.6719 5.787 85.3499 6.057C85.1339 6.111 85.0259 6.084 85.0259 5.976C85.0259 5.868 85.0799 5.787 85.1879 5.733C85.2959 5.679 85.4039 5.598 85.5119 5.49C86.5379 4.734 87.8609 4.248 89.4809 4.032C91.1009 3.762 92.7749 3.654 94.5029 3.708C96.2849 3.708 97.9859 3.816 99.6059 4.032C101.226 4.248 102.576 4.437 103.656 4.599ZM91.5059 7.11C93.7739 7.434 96.0689 7.839 98.3909 8.325C100.767 8.811 103.062 9.351 105.276 9.945C105.384 10.053 105.6 10.161 105.924 10.269C106.302 10.323 106.491 10.431 106.491 10.593C106.491 10.701 106.329 10.782 106.005 10.836C105.681 10.89 105.438 10.971 105.276 11.079C104.79 11.187 104.169 11.241 103.413 11.241C102.711 11.241 101.955 11.241 101.145 11.241C100.389 11.187 99.6329 11.133 98.8769 11.079C98.1209 11.025 97.4729 10.944 96.9329 10.836C96.5549 10.782 95.6099 10.674 94.0979 10.512C92.6399 10.35 91.0199 10.242 89.2379 10.188C87.4559 10.134 85.7279 10.161 84.0539 10.269C82.4339 10.323 81.2729 10.539 80.5709 10.917C80.3549 11.025 80.2199 11.079 80.1659 11.079H80.0849C80.0849 10.863 80.1929 10.647 80.4089 10.431C80.9489 9.729 81.6779 9.135 82.5959 8.649C83.5679 8.163 84.5669 7.785 85.5929 7.51499C86.6189 7.245 87.6449 7.083 88.6709 7.029C89.7509 6.975 90.6959 7.002 91.5059 7.11ZM94.1789 57.249C94.3409 58.167 94.5299 59.085 94.7459 60.003C95.0159 60.921 95.3399 61.812 95.7179 62.676C95.9339 63.108 95.9609 63.324 95.7989 63.324C95.6909 63.324 95.5289 63.27 95.3129 63.162C95.2049 63.108 95.1239 63.027 95.0699 62.919C94.3679 62.109 93.8009 61.353 93.3689 60.651C92.9909 59.949 92.6669 58.815 92.3969 57.249C92.2889 56.655 92.2079 55.899 92.1539 54.981C92.1539 54.063 92.1809 53.172 92.2349 52.308C92.2889 51.444 92.3699 50.715 92.4779 50.121C92.5859 49.527 92.7479 49.23 92.9639 49.23C93.0179 49.23 93.0719 49.365 93.1259 49.635C93.2339 49.905 93.3149 50.229 93.3689 50.607C93.4229 50.931 93.4769 51.282 93.5309 51.66C93.5849 51.984 93.6119 52.2 93.6119 52.308C93.7199 53.226 93.8009 54.09 93.8549 54.9C93.9629 55.71 94.0709 56.493 94.1789 57.249ZM117.669 6.543C118.857 5.517 119.856 4.41 120.666 3.222C120.774 3.006 120.882 2.898 120.99 2.898C121.044 2.898 121.071 3.087 121.071 3.465C121.071 3.681 121.044 3.87 120.99 4.032C120.774 4.95 120.531 5.679 120.261 6.219C119.991 6.759 119.343 7.407 118.317 8.163C117.939 8.487 117.426 8.811 116.778 9.135C116.13 9.405 115.509 9.648 114.915 9.864C114.321 10.08 113.781 10.215 113.295 10.269C112.863 10.269 112.62 10.161 112.566 9.945C112.566 9.891 112.647 9.81 112.809 9.702C112.971 9.54 113.16 9.378 113.376 9.216C113.646 9.054 113.889 8.919 114.105 8.811C114.321 8.649 114.483 8.541 114.591 8.487C115.131 8.217 115.644 7.92 116.13 7.596C116.67 7.272 117.183 6.921 117.669 6.543ZM189.785 10.836C189.731 11.484 189.569 12.375 189.299 13.509C189.083 14.643 188.813 15.75 188.489 16.83C188.219 17.91 187.922 18.855 187.598 19.665C187.328 20.421 187.085 20.745 186.869 20.637C186.815 20.583 186.788 20.421 186.788 20.151C186.788 19.881 186.788 19.584 186.788 19.26C186.842 18.882 186.869 18.531 186.869 18.207C186.923 17.883 186.977 17.64 187.031 17.478C187.085 17.1 187.166 16.587 187.274 15.939C187.382 15.291 187.463 14.643 187.517 13.995C187.625 13.293 187.706 12.645 187.76 12.051C187.868 11.403 187.949 10.863 188.003 10.431C188.111 9.405 188.165 8.433 188.165 7.51499C188.165 6.597 188.111 5.625 188.003 4.599C188.003 4.491 188.003 4.356 188.003 4.194C188.057 4.032 188.138 3.951 188.246 3.951C188.57 3.951 188.786 4.167 188.894 4.599C189.164 5.355 189.407 6.192 189.623 7.11C189.839 7.974 189.893 9.216 189.785 10.836ZM190.676 5.166C191.486 7.326 191.945 9.621 192.053 12.051C192.215 14.427 192.134 16.83 191.81 19.26C191.486 21.69 190.973 24.093 190.271 26.469C189.623 28.791 188.867 30.978 188.003 33.03C186.869 35.73 185.681 38.403 184.439 41.049C183.197 43.641 181.982 46.206 180.794 48.744C179.606 51.228 178.499 53.658 177.473 56.034C176.501 58.41 175.718 60.732 175.124 63C175.07 63.162 174.962 63.27 174.8 63.324C174.638 63.432 174.557 63.324 174.557 63C174.449 60.408 174.773 57.789 175.529 55.143C176.339 52.497 177.338 49.851 178.526 47.205C179.768 44.505 181.064 41.805 182.414 39.105C183.818 36.405 185.087 33.651 186.221 30.843C186.923 29.115 187.598 27.171 188.246 25.011C188.894 22.851 189.434 20.637 189.866 18.369C190.298 16.101 190.568 13.833 190.676 11.565C190.784 9.297 190.676 7.218 190.352 5.328C190.244 4.788 190.271 4.599 190.433 4.761L190.514 4.842C190.568 4.896 190.595 4.95 190.595 5.004C190.595 5.058 190.622 5.112 190.676 5.166ZM164.027 13.266C163.973 13.914 163.838 14.697 163.622 15.615C163.46 16.479 163.271 17.316 163.055 18.126C162.839 18.882 162.596 19.53 162.326 20.07C162.11 20.61 161.894 20.826 161.678 20.718C161.624 20.718 161.597 20.583 161.597 20.313C161.597 20.043 161.597 19.746 161.597 19.422C161.651 19.044 161.678 18.693 161.678 18.369C161.732 18.045 161.786 17.802 161.84 17.64C162.164 16.074 162.353 14.427 162.407 12.699C162.515 11.727 162.542 10.836 162.488 10.026C162.488 9.162 162.407 8.217 162.245 7.191C162.245 7.083 162.191 6.867 162.083 6.543C162.029 6.165 162.083 5.976 162.245 5.976C162.353 5.976 162.515 6.138 162.731 6.462L163.055 6.948C163.271 7.434 163.46 7.893 163.622 8.325C163.784 8.757 163.892 9.189 163.946 9.621C164.054 10.053 164.108 10.566 164.108 11.16C164.108 11.754 164.081 12.456 164.027 13.266ZM184.358 28.251C184.52 28.359 184.547 28.629 184.439 29.061C184.331 29.493 184.277 29.79 184.277 29.952C184.061 30.6 183.791 31.383 183.467 32.301C183.197 33.165 182.873 34.083 182.495 35.055C182.171 35.973 181.82 36.864 181.442 37.728C181.118 38.592 180.794 39.321 180.47 39.915C180.308 40.239 180.011 40.887 179.579 41.859C179.201 42.777 178.769 43.911 178.283 45.261C177.797 46.557 177.284 47.988 176.744 49.554C176.204 51.066 175.718 52.551 175.286 54.009C174.854 55.467 174.476 56.817 174.152 58.059C173.828 59.247 173.666 60.192 173.666 60.894C173.666 61.164 173.612 61.353 173.504 61.461C173.45 61.515 173.396 61.515 173.342 61.461C173.288 61.461 173.153 61.353 172.937 61.137C172.667 60.759 172.289 60.3 171.803 59.76C171.317 59.166 170.885 58.572 170.507 57.978C170.183 57.438 169.859 56.736 169.535 55.872C169.211 54.954 168.914 54.063 168.644 53.199C168.374 52.281 168.185 51.498 168.077 50.85C167.969 50.202 167.996 49.824 168.158 49.716C168.212 49.716 168.32 49.851 168.482 50.121C168.644 50.337 168.806 50.607 168.968 50.931C169.13 51.255 169.265 51.579 169.373 51.903C169.535 52.173 169.643 52.362 169.697 52.47C170.075 53.172 170.399 53.874 170.669 54.576C170.993 55.224 171.29 55.899 171.56 56.601C171.83 57.303 172.127 57.924 172.451 58.464C172.775 58.95 172.964 59.166 173.018 59.112C173.072 59.112 173.099 58.977 173.099 58.707C173.099 58.383 173.072 58.032 173.018 57.654C173.018 57.276 172.991 56.925 172.937 56.601C172.937 56.223 172.937 55.953 172.937 55.791C172.829 53.739 172.937 51.876 173.261 50.202C173.639 48.528 174.125 47.016 174.719 45.666C175.907 42.912 177.257 40.131 178.769 37.323C180.335 34.461 181.874 31.815 183.386 29.385C183.494 29.277 183.656 29.061 183.872 28.737C184.142 28.413 184.304 28.251 184.358 28.251ZM173.018 63C171.074 62.028 169.4 60.678 167.996 58.95C166.646 57.168 165.512 55.278 164.594 53.28C163.676 51.228 162.947 49.149 162.407 47.043C161.867 44.937 161.489 42.993 161.273 41.211C161.165 40.401 161.084 39.618 161.03 38.862C160.976 38.052 160.949 37.512 160.949 37.242C159.977 39.51 158.951 41.778 157.871 44.046C156.791 46.314 155.765 48.555 154.793 50.769C153.821 52.929 152.93 55.062 152.12 57.168C151.31 59.22 150.662 61.164 150.176 63C150.122 63.216 150.014 63.405 149.852 63.567C149.69 63.567 149.609 63.378 149.609 63C149.555 60.408 149.906 57.816 150.662 55.224C151.418 52.632 152.363 50.013 153.497 47.367C154.685 44.667 155.954 41.967 157.304 39.267C158.654 36.513 159.896 33.732 161.03 30.924C161.732 29.196 162.353 27.387 162.893 25.497C163.487 23.553 163.973 21.609 164.351 19.665C164.729 17.667 164.945 15.669 164.999 13.671C165.053 11.619 164.918 9.648 164.594 7.758C164.54 7.488 164.486 7.326 164.432 7.272C164.378 7.164 164.405 7.11 164.513 7.11C164.675 7.11 164.81 7.245 164.918 7.51499C165.458 8.973 165.836 10.431 166.052 11.889C166.322 13.293 166.511 14.724 166.619 16.182C167.267 17.37 167.807 18.882 168.239 20.718C168.671 22.5 169.049 24.363 169.373 26.307C169.751 28.251 170.048 30.168 170.264 32.058C170.534 33.948 170.804 35.595 171.074 36.999C171.344 38.241 171.533 39.537 171.641 40.887C171.803 42.237 171.938 43.533 172.046 44.775C172.424 43.263 172.883 41.724 173.423 40.158C174.017 38.592 174.611 37.08 175.205 35.622C175.799 34.11 176.366 32.706 176.906 31.41C177.446 30.114 177.932 28.98 178.364 28.008C178.85 26.82 179.417 25.497 180.065 24.039C180.713 22.581 181.361 21.15 182.009 19.746C182.711 18.342 183.386 17.019 184.034 15.777C184.736 14.481 185.357 13.401 185.897 12.537C186.167 12.159 186.383 11.862 186.545 11.646C186.761 11.376 186.923 11.268 187.031 11.322C187.139 11.43 187.139 11.619 187.031 11.889C186.977 12.105 186.896 12.348 186.788 12.618C186.248 14.562 185.6 16.614 184.844 18.774C184.088 20.88 183.278 23.013 182.414 25.173C181.55 27.333 180.659 29.466 179.741 31.572C178.877 33.678 178.013 35.676 177.149 37.566C176.231 39.672 175.259 41.805 174.233 43.965C173.207 46.125 172.478 48.501 172.046 51.093C171.938 51.687 171.803 52.065 171.641 52.227C171.533 52.335 171.344 51.93 171.074 51.012C169.724 45.936 168.752 40.86 168.158 35.784C167.564 30.654 166.889 25.497 166.133 20.313C165.971 21.879 165.836 23.202 165.728 24.282C165.62 25.362 165.62 26.658 165.728 28.17C165.836 30.114 165.971 32.058 166.133 34.002C166.295 35.892 166.403 37.674 166.457 39.348C166.457 39.51 166.43 39.861 166.376 40.401C166.376 40.941 166.295 41.211 166.133 41.211C166.079 41.265 166.025 41.238 165.971 41.13C165.917 40.968 165.836 40.779 165.728 40.563C165.674 40.347 165.593 40.158 165.485 39.996C165.431 39.78 165.404 39.618 165.404 39.51C165.134 38.43 164.837 37.107 164.513 35.541C164.189 33.975 163.892 32.436 163.622 30.924C163.19 32.274 162.92 33.651 162.812 35.055C162.704 36.405 162.812 38.052 163.136 39.996C163.514 42.048 164 44.154 164.594 46.314C165.188 48.42 165.89 50.472 166.7 52.47C167.564 54.468 168.536 56.358 169.616 58.14C170.696 59.922 171.911 61.461 173.261 62.757C173.423 62.865 173.477 62.946 173.423 63C173.369 63.108 173.234 63.108 173.018 63ZM161.273 13.752C161.381 13.86 161.381 14.049 161.273 14.319C161.165 14.589 161.084 14.832 161.03 15.048C160.652 16.992 160.112 18.936 159.41 20.88C158.762 22.77 158.033 24.66 157.223 26.55C156.413 28.386 155.549 30.249 154.631 32.139C153.767 33.975 152.903 35.838 152.039 37.728C151.121 39.78 150.176 41.886 149.204 44.046C148.286 46.206 147.584 48.609 147.098 51.255C146.99 51.795 146.882 52.146 146.774 52.308C146.666 52.47 146.477 52.065 146.207 51.093C145.181 47.421 144.371 43.668 143.777 39.834C143.237 35.946 142.751 32.004 142.319 28.008C142.049 25.2 141.671 22.338 141.185 19.422C140.699 16.452 139.997 13.401 139.079 10.269C139.025 9.945 139.025 9.756 139.079 9.702C139.133 9.648 139.214 9.702 139.322 9.864C139.43 9.972 139.538 10.08 139.646 10.188C140.294 10.944 140.888 12.024 141.428 13.428C141.968 14.778 142.454 16.29 142.886 17.964C143.318 19.584 143.696 21.312 144.02 23.148C144.344 24.984 144.641 26.766 144.911 28.494C145.181 30.222 145.397 31.842 145.559 33.354C145.775 34.866 145.991 36.135 146.207 37.161C146.423 38.403 146.585 39.699 146.693 41.049C146.855 42.345 146.99 43.641 147.098 44.937C147.476 43.425 147.935 41.913 148.475 40.401C149.069 38.835 149.663 37.323 150.257 35.865C150.905 34.407 151.499 33.03 152.039 31.734C152.633 30.438 153.119 29.331 153.497 28.413C154.523 25.929 155.63 23.472 156.818 21.042C158.06 18.612 159.248 16.533 160.382 14.805C160.544 14.535 160.706 14.292 160.868 14.076C161.03 13.806 161.165 13.698 161.273 13.752ZM141.509 39.51C141.563 39.672 141.563 40.023 141.509 40.563C141.455 41.103 141.374 41.373 141.266 41.373C141.158 41.427 141.05 41.211 140.942 40.725C140.834 40.185 140.726 39.807 140.618 39.591C140.456 38.889 140.24 38.025 139.97 36.999C139.754 35.973 139.511 34.92 139.241 33.84C139.025 32.76 138.809 31.707 138.593 30.681C138.431 29.655 138.323 28.764 138.269 28.008C138.215 27.63 138.107 26.901 137.945 25.821C137.837 24.687 137.648 23.364 137.378 21.852C137.162 20.286 136.892 18.639 136.568 16.911C136.244 15.183 135.893 13.509 135.515 11.889C135.191 10.269 134.84 8.838 134.462 7.596C134.138 6.3 133.787 5.355 133.409 4.761C133.085 4.329 133.004 4.059 133.166 3.951C133.274 3.843 133.409 3.87 133.571 4.032C133.733 4.194 133.868 4.329 133.976 4.437C134.732 5.085 135.434 6.003 136.082 7.191C136.784 8.379 137.405 9.675 137.945 11.079C138.539 12.429 139.025 13.806 139.403 15.21C139.781 16.614 140.051 17.883 140.213 19.017C140.645 22.257 140.942 25.713 141.104 29.385C141.32 33.003 141.455 36.378 141.509 39.51ZM159.248 28.413C159.41 28.467 159.437 28.71 159.329 29.142C159.221 29.574 159.14 29.871 159.086 30.033C158.87 30.681 158.6 31.464 158.276 32.382C158.006 33.246 157.682 34.164 157.304 35.136C156.98 36.054 156.629 36.945 156.251 37.809C155.927 38.673 155.603 39.402 155.279 39.996C155.063 40.428 154.631 41.508 153.983 43.236C153.389 44.964 152.741 46.935 152.039 49.149C151.337 51.309 150.662 53.496 150.014 55.71C149.42 57.87 149.042 59.625 148.88 60.975C148.826 61.353 148.745 61.542 148.637 61.542C148.475 61.596 148.259 61.488 147.989 61.218C147.719 60.894 147.341 60.462 146.855 59.922C146.369 59.328 145.964 58.734 145.64 58.14C145.37 57.6 145.046 56.871 144.668 55.953C144.344 55.035 144.047 54.144 143.777 53.28C143.507 52.362 143.318 51.579 143.21 50.931C143.102 50.229 143.129 49.851 143.291 49.797C143.345 49.797 143.426 49.932 143.534 50.202C143.696 50.418 143.858 50.715 144.02 51.093C144.182 51.417 144.317 51.741 144.425 52.065C144.587 52.389 144.722 52.605 144.83 52.713C145.154 53.415 145.451 54.09 145.721 54.738C145.991 55.332 146.261 55.98 146.531 56.682C146.801 57.438 147.098 58.086 147.422 58.626C147.8 59.112 148.016 59.301 148.07 59.193C148.07 59.193 148.07 59.058 148.07 58.788C148.07 58.464 148.043 58.14 147.989 57.816C147.935 57.438 147.881 57.06 147.827 56.682C147.827 56.304 147.827 56.034 147.827 55.872C147.827 53.82 147.989 51.984 148.313 50.364C148.691 48.69 149.15 47.178 149.69 45.828C150.824 43.074 152.147 40.293 153.659 37.485C155.225 34.623 156.737 31.95 158.195 29.466C158.303 29.358 158.465 29.169 158.681 28.899C158.951 28.575 159.14 28.413 159.248 28.413ZM135.839 39.915C135.299 36.675 134.894 33.381 134.624 30.033C134.354 26.685 134.084 23.418 133.814 20.232C133.544 17.046 133.166 13.995 132.68 11.079C132.248 8.163 131.6 5.49 130.736 3.06C130.682 2.952 130.628 2.871 130.574 2.817C130.574 2.709 130.628 2.601 130.736 2.493C130.79 2.439 130.871 2.493 130.979 2.65499C131.087 2.817 131.168 2.952 131.222 3.06C132.68 5.328 133.76 7.947 134.462 10.917C135.218 13.833 135.785 16.938 136.163 20.232C136.541 23.472 136.838 26.793 137.054 30.195C137.324 33.597 137.729 36.918 138.269 40.158C138.593 42.21 139.052 44.289 139.646 46.395C140.294 48.501 141.05 50.553 141.914 52.551C142.778 54.495 143.75 56.358 144.83 58.14C145.91 59.922 147.098 61.488 148.394 62.838C148.448 62.892 148.448 62.946 148.394 63C148.34 63.108 148.205 63.108 147.989 63C146.207 61.866 144.641 60.489 143.291 58.869C141.941 57.195 140.78 55.359 139.808 53.361C138.836 51.309 138.026 49.149 137.378 46.881C136.73 44.613 136.217 42.291 135.839 39.915ZM216.472 40.563C216.634 39.105 216.661 37.566 216.553 35.946C216.445 34.326 216.094 32.841 215.5 31.491C214.96 30.087 214.096 28.926 212.908 28.008C211.774 27.09 210.262 26.631 208.372 26.631C205.834 26.631 203.62 27.333 201.73 28.737C199.84 30.087 198.22 31.788 196.87 33.84C195.52 35.838 194.467 37.998 193.711 40.32C192.955 42.588 192.469 44.667 192.253 46.557C191.929 49.149 191.875 51.39 192.091 53.28C192.361 55.17 192.82 56.736 193.468 57.978C194.116 59.166 194.926 60.057 195.898 60.651C196.924 61.245 198.031 61.542 199.219 61.542C200.893 61.596 202.648 61.137 204.484 60.165C206.374 59.139 208.129 57.735 209.749 55.953C211.369 54.117 212.773 51.903 213.961 49.311C215.203 46.665 216.04 43.749 216.472 40.563ZM190.39 46.152C190.606 43.992 191.146 41.616 192.01 39.024C192.874 36.432 194.062 34.029 195.574 31.815C197.14 29.601 199.003 27.765 201.163 26.307C203.323 24.795 205.834 24.039 208.696 24.039C210.856 24.039 212.638 24.552 214.042 25.578C215.446 26.604 216.526 27.927 217.282 29.547C218.038 31.113 218.524 32.841 218.74 34.731C218.956 36.567 218.956 38.322 218.74 39.996C218.254 43.884 217.309 47.259 215.905 50.121C214.501 52.983 212.854 55.386 210.964 57.33C209.074 59.22 207.076 60.651 204.97 61.623C202.864 62.541 200.839 63 198.895 63C197.437 63 196.114 62.676 194.926 62.028C193.792 61.38 192.82 60.381 192.01 59.031C191.254 57.627 190.714 55.872 190.39 53.766C190.12 51.606 190.12 49.068 190.39 46.152ZM199.462 57.573C199.192 57.573 198.922 57.492 198.652 57.33C198.382 57.114 198.166 56.871 198.004 56.601C197.842 56.331 197.734 56.061 197.68 55.791C197.626 55.521 197.734 55.332 198.004 55.224C198.166 55.17 198.382 55.359 198.652 55.791C198.922 56.223 199.219 56.439 199.543 56.439C200.083 56.439 200.704 56.088 201.406 55.386C202.162 54.684 202.864 53.874 203.512 52.956C204.214 51.984 204.808 51.039 205.294 50.121C205.834 49.203 206.212 48.528 206.428 48.096C206.644 47.664 206.86 47.124 207.076 46.476C207.292 45.774 207.481 45.072 207.643 44.37C207.859 43.668 208.021 42.993 208.129 42.345C208.291 41.643 208.399 41.049 208.453 40.563C208.723 38.133 208.669 36.27 208.291 34.974C207.913 33.624 207.292 32.949 206.428 32.949C205.78 32.949 205.105 33.165 204.403 33.597C203.701 33.975 203.026 34.488 202.378 35.136C201.784 35.784 201.244 36.513 200.758 37.323C200.272 38.079 199.921 38.862 199.705 39.672C199.435 40.59 199.246 41.049 199.138 41.049C198.976 41.049 198.895 40.59 198.895 39.672C199.057 38.646 199.408 37.647 199.948 36.675C200.488 35.649 201.163 34.758 201.973 34.002C202.783 33.192 203.674 32.544 204.646 32.058C205.618 31.518 206.617 31.248 207.643 31.248C208.669 31.248 209.425 31.626 209.911 32.382C210.451 33.084 210.829 33.975 211.045 35.055C211.261 36.081 211.342 37.161 211.288 38.295C211.288 39.375 211.234 40.239 211.126 40.887C210.91 42.345 210.559 43.776 210.073 45.18C209.641 46.53 209.101 47.907 208.453 49.311C208.129 49.959 207.643 50.769 206.995 51.741C206.347 52.659 205.591 53.55 204.727 54.414C203.917 55.278 203.026 56.034 202.054 56.682C201.136 57.276 200.272 57.573 199.462 57.573ZM202.054 59.112C202.108 59.436 201.838 59.706 201.244 59.922C200.704 60.138 200.137 60.246 199.543 60.246C197.869 60.192 196.573 59.652 195.655 58.626C194.791 57.6 194.17 56.385 193.792 54.981C193.468 53.577 193.306 52.119 193.306 50.607C193.36 49.095 193.441 47.826 193.549 46.8C193.765 45.018 194.197 43.02 194.845 40.806C195.493 38.592 196.411 36.513 197.599 34.569C198.787 32.625 200.245 31.005 201.973 29.709C203.701 28.359 205.753 27.684 208.129 27.684C209.695 27.684 210.937 28.089 211.855 28.899C212.827 29.709 213.529 30.708 213.961 31.896C214.447 33.084 214.717 34.38 214.771 35.784C214.879 37.134 214.852 38.376 214.69 39.51C214.582 40.752 214.393 41.886 214.123 42.912C213.853 43.938 213.475 45.072 212.989 46.314C212.827 46.692 212.611 47.124 212.341 47.61C212.071 48.096 211.774 48.312 211.45 48.258C211.288 48.204 211.234 47.988 211.288 47.61C211.396 47.232 211.504 46.773 211.612 46.233C211.774 45.639 211.936 45.045 212.098 44.451C212.26 43.803 212.368 43.209 212.422 42.669C212.53 41.751 212.584 40.617 212.584 39.267C212.638 37.863 212.53 36.513 212.26 35.217C212.044 33.921 211.612 32.814 210.964 31.896C210.316 30.978 209.344 30.519 208.048 30.519C206.158 30.519 204.403 31.14 202.783 32.382C201.217 33.57 199.84 35.055 198.652 36.837C197.464 38.565 196.492 40.401 195.736 42.345C195.034 44.235 194.602 45.909 194.44 47.367C194.332 48.231 194.305 49.311 194.359 50.607C194.413 51.903 194.602 53.199 194.926 54.495C195.304 55.737 195.898 56.817 196.708 57.735C197.518 58.653 198.625 59.139 200.029 59.193C200.461 59.247 200.866 59.22 201.244 59.112C201.676 58.95 201.946 58.95 202.054 59.112ZM230.743 36.027C230.311 37.863 229.69 39.807 228.88 41.859C228.124 43.857 227.26 45.72 226.288 47.448C226.288 47.556 226.207 47.745 226.045 48.015C225.937 48.231 225.775 48.339 225.559 48.339C225.451 48.339 225.37 48.177 225.316 47.853C225.316 47.529 225.343 47.313 225.397 47.205C225.397 46.341 225.505 45.207 225.721 43.803C225.937 42.345 226.207 41.157 226.531 40.239C226.639 39.915 226.801 39.132 227.017 37.89C227.287 36.648 227.503 35.271 227.665 33.759C227.881 32.193 227.989 30.708 227.989 29.304C228.043 27.846 227.881 26.766 227.503 26.064V25.74C227.719 25.578 227.962 25.632 228.232 25.902C228.934 26.496 229.474 27.225 229.852 28.089C230.284 28.953 230.581 29.871 230.743 30.843C230.959 31.761 231.04 32.679 230.986 33.597C230.986 34.515 230.905 35.325 230.743 36.027ZM233.902 35.703C234.496 34.947 235.063 34.407 235.603 34.083C236.143 33.759 236.683 33.489 237.223 33.273C237.277 33.273 237.412 33.246 237.628 33.192C237.844 33.138 238.006 33.192 238.114 33.354C238.222 33.516 238.195 33.705 238.033 33.921C237.871 34.137 237.736 34.299 237.628 34.407C237.25 34.785 236.818 35.217 236.332 35.703C235.9 36.135 235.495 36.567 235.117 36.999C234.577 37.593 234.145 38.295 233.821 39.105C233.497 39.861 233.254 40.644 233.092 41.454C234.01 40.482 234.874 39.564 235.684 38.7C236.548 37.836 237.466 37.026 238.438 36.27C239.68 35.352 240.76 34.164 241.678 32.706C242.596 31.248 243.244 29.115 243.622 26.307C243.73 26.037 243.865 25.875 244.027 25.821C244.189 25.767 244.27 25.956 244.27 26.388C244.432 29.52 244.108 32.004 243.298 33.84C242.488 35.676 241.273 37.215 239.653 38.457C238.789 39.105 237.925 39.807 237.061 40.563C236.197 41.319 235.36 42.156 234.55 43.074C233.794 43.992 233.092 45.072 232.444 46.314C231.796 47.556 231.229 48.987 230.743 50.607C230.365 51.849 229.987 53.037 229.609 54.171C229.231 55.251 228.826 56.304 228.394 57.33C228.286 57.708 228.124 57.897 227.908 57.897C227.746 57.843 227.665 57.573 227.665 57.087C227.395 54.495 227.557 51.93 228.151 49.392C228.799 46.8 229.555 44.127 230.419 41.373C230.797 40.023 231.229 38.673 231.715 37.323C232.255 35.973 232.498 34.434 232.444 32.706C232.444 32.112 232.687 31.491 233.173 30.843C233.659 30.195 234.253 29.601 234.955 29.061C235.657 28.467 236.386 27.981 237.142 27.603C237.898 27.171 238.546 26.874 239.086 26.712C239.572 26.55 239.815 26.577 239.815 26.793C239.815 27.009 239.653 27.279 239.329 27.603C238.195 28.629 237.034 29.844 235.846 31.248C234.712 32.652 234.064 34.137 233.902 35.703ZM226.855 62.919C226.801 62.973 226.747 63 226.693 63C226.693 62.946 226.558 62.838 226.288 62.676C224.668 61.488 223.399 60.192 222.481 58.788C221.563 57.384 220.888 55.953 220.456 54.495C220.078 52.983 219.916 51.498 219.97 50.04C220.024 48.528 220.213 47.07 220.537 45.666C220.969 43.776 221.482 41.913 222.076 40.077C222.724 38.187 223.318 36.378 223.858 34.65C224.398 32.868 224.803 31.14 225.073 29.466C225.343 27.738 225.343 26.091 225.073 24.525C225.073 24.417 225.154 24.336 225.316 24.282C225.37 24.282 225.424 24.336 225.478 24.444C225.532 24.498 225.586 24.552 225.64 24.606C226.666 26.334 227.179 28.116 227.179 29.952C227.179 31.734 226.936 33.57 226.45 35.46C225.964 37.296 225.343 39.186 224.587 41.13C223.885 43.02 223.318 44.937 222.886 46.881C222.346 49.365 222.292 52.011 222.724 54.819C223.21 57.627 224.479 60.138 226.531 62.352C226.639 62.514 226.747 62.622 226.855 62.676C226.963 62.73 226.963 62.811 226.855 62.919ZM229.285 63C229.177 63 229.069 62.973 228.961 62.919L228.637 62.757C227.881 62.271 227.206 61.758 226.612 61.218C226.018 60.624 225.505 59.787 225.073 58.707C224.911 58.329 224.776 57.843 224.668 57.249C224.56 56.601 224.479 56.007 224.425 55.467C224.425 54.927 224.452 54.468 224.506 54.09C224.614 53.712 224.776 53.55 224.992 53.604C225.154 53.604 225.316 53.82 225.478 54.252C225.694 54.684 225.856 55.116 225.964 55.548C226.072 56.142 226.18 56.709 226.288 57.249C226.45 57.789 226.639 58.275 226.855 58.707C227.449 60.057 228.232 61.353 229.204 62.595C229.312 62.865 229.339 63 229.285 63ZM242.488 26.631C242.488 27.765 242.164 28.764 241.516 29.628C240.868 30.492 240.085 31.221 239.167 31.815C239.005 31.923 238.897 31.923 238.843 31.815C238.789 31.653 238.762 31.545 238.762 31.491C238.762 31.167 238.897 30.789 239.167 30.357C239.437 29.871 239.734 29.385 240.058 28.899C240.436 28.359 240.787 27.819 241.111 27.279C241.435 26.739 241.651 26.253 241.759 25.821C241.921 25.551 242.083 25.551 242.245 25.821C242.407 26.091 242.488 26.361 242.488 26.631ZM277.672 20.799C276.916 24.201 275.917 27.603 274.675 31.005C273.487 34.353 272.299 37.539 271.111 40.563C271.057 40.833 270.922 41.184 270.706 41.616C270.49 42.048 270.247 42.21 269.977 42.102C269.923 42.102 269.896 41.859 269.896 41.373C269.896 40.887 269.923 40.563 269.977 40.401C270.085 39.645 270.22 38.754 270.382 37.728C270.598 36.648 270.814 35.568 271.03 34.488C271.3 33.408 271.57 32.355 271.84 31.329C272.11 30.249 272.353 29.331 272.569 28.575C272.731 28.251 272.92 27.522 273.136 26.388C273.406 25.254 273.676 23.931 273.946 22.419C274.216 20.853 274.459 19.179 274.675 17.397C274.891 15.615 275.026 13.914 275.08 12.294C275.134 10.62 275.107 9.108 274.999 7.758C274.945 6.408 274.729 5.409 274.351 4.761C274.081 4.221 274.027 3.924 274.189 3.87C274.405 3.87 274.648 4.005 274.918 4.275C275.728 5.085 276.349 6.192 276.781 7.596C277.267 8.946 277.618 10.431 277.834 12.051C278.05 13.617 278.131 15.183 278.077 16.749C278.023 18.315 277.888 19.665 277.672 20.799ZM279.778 11.808C280.318 12.888 280.642 14.211 280.75 15.777C280.858 17.343 280.831 19.044 280.669 20.88C280.507 22.662 280.237 24.525 279.859 26.469C279.535 28.359 279.157 30.195 278.725 31.977C278.293 33.705 277.861 35.325 277.429 36.837C277.051 38.349 276.727 39.591 276.457 40.563C275.701 43.371 274.999 46.179 274.351 48.987C273.757 51.741 273.46 54.09 273.46 56.034C273.46 56.736 273.433 57.087 273.379 57.087C273.271 57.195 273.136 57.114 272.974 56.844C272.866 56.574 272.758 56.304 272.65 56.034C272.11 54.09 271.867 52.092 271.921 50.04C272.029 47.934 272.299 45.801 272.731 43.641C273.163 41.427 273.703 39.213 274.351 36.999C275.053 34.731 275.728 32.49 276.376 30.276C277.132 27.468 277.888 24.552 278.644 21.528C279.4 18.45 279.643 15.21 279.373 11.808C279.373 11.538 279.346 11.403 279.292 11.403C279.292 11.349 279.319 11.322 279.373 11.322C279.481 11.322 279.616 11.484 279.778 11.808ZM268.114 28.413C264.874 29.817 262.093 31.788 259.771 34.326C257.503 36.81 255.775 39.591 254.587 42.669C254.101 43.965 253.696 45.207 253.372 46.395C253.102 47.529 252.913 48.744 252.805 50.04C252.751 50.688 252.913 50.931 253.291 50.769C253.669 50.607 253.993 50.364 254.263 50.04C254.911 49.23 255.505 48.447 256.045 47.691C256.585 46.881 257.125 46.071 257.665 45.261C258.259 44.397 258.853 43.506 259.447 42.588C260.095 41.616 260.797 40.59 261.553 39.51C262.363 38.376 263.119 37.269 263.821 36.189C264.577 35.055 265.225 34.002 265.765 33.03C266.359 32.058 266.845 31.167 267.223 30.357C267.655 29.547 267.952 28.899 268.114 28.413ZM266.332 34.812C264.388 38.592 262.39 42.156 260.338 45.504C258.286 48.798 255.937 51.822 253.291 54.576C251.617 56.358 250.618 56.088 250.294 53.766C250.186 51.93 250.321 50.013 250.699 48.015C251.077 46.017 251.644 44.127 252.4 42.345C253.102 40.617 253.966 38.943 254.992 37.323C256.018 35.703 257.206 34.218 258.556 32.868C259.906 31.518 261.391 30.384 263.011 29.466C264.685 28.548 266.467 27.927 268.357 27.603C269.005 25.335 269.626 23.121 270.22 20.961C270.814 18.747 271.3 16.587 271.678 14.481C272.056 12.375 272.245 10.35 272.245 8.406C272.299 6.408 272.137 4.518 271.759 2.736C271.651 2.412 271.624 2.25 271.678 2.25C271.786 2.196 271.867 2.25 271.921 2.412C272.029 2.574 272.083 2.682 272.083 2.736C273.379 5.328 274 8.109 273.946 11.079C273.946 14.049 273.595 17.127 272.893 20.313C272.191 23.499 271.3 26.739 270.22 30.033C269.194 33.327 268.303 36.621 267.547 39.915C267.061 42.021 266.764 44.289 266.656 46.719C266.602 49.095 266.845 51.444 267.385 53.766C267.925 56.196 268.924 58.275 270.382 60.003C271.84 61.677 273.514 62.595 275.404 62.757C275.836 62.811 276.052 62.892 276.052 63C276.052 63.108 275.971 63.162 275.809 63.162C275.701 63.216 275.593 63.243 275.485 63.243C274.351 63.243 273.217 63.027 272.083 62.595C271.003 62.163 269.977 61.542 269.005 60.732C268.033 59.922 267.169 58.977 266.413 57.897C265.711 56.763 265.198 55.494 264.874 54.09C264.766 53.658 264.712 53.307 264.712 53.037C263.2 55.899 261.364 58.221 259.204 60.003C257.098 61.731 254.425 62.73 251.185 63C248.755 63.162 246.892 62.595 245.596 61.299C244.354 60.003 243.49 58.437 243.004 56.601C242.518 54.765 242.356 52.848 242.518 50.85C242.68 48.798 242.977 47.124 243.409 45.828C244.651 42.102 246.217 38.835 248.107 36.027C249.997 33.165 251.887 31.167 253.777 30.033C253.885 29.925 254.047 29.844 254.263 29.79C254.479 29.682 254.614 29.655 254.668 29.709C254.776 29.763 254.749 29.871 254.587 30.033C254.425 30.195 254.317 30.303 254.263 30.357C251.347 33.273 249.079 36.621 247.459 40.401C245.893 44.127 245.056 47.934 244.948 51.822C244.894 52.794 244.921 53.847 245.029 54.981C245.137 56.115 245.38 57.195 245.758 58.221C246.19 59.193 246.784 60.03 247.54 60.732C248.296 61.38 249.322 61.704 250.618 61.704C252.454 61.758 254.182 61.218 255.802 60.084C257.476 58.896 258.907 57.465 260.095 55.791C261.337 54.063 262.336 52.227 263.092 50.283C263.848 48.339 264.28 46.557 264.388 44.937C264.01 45.369 263.686 45.828 263.416 46.314C263.146 46.746 262.795 47.232 262.363 47.772C262.309 47.88 262.147 48.069 261.877 48.339C261.607 48.555 261.391 48.636 261.229 48.582C261.121 48.528 261.175 48.231 261.391 47.691C261.607 47.097 261.877 46.476 262.201 45.828C262.525 45.126 262.849 44.478 263.173 43.884C263.497 43.236 263.713 42.804 263.821 42.588C264.415 41.346 264.874 40.104 265.198 38.862C265.522 37.62 265.9 36.27 266.332 34.812ZM277.591 61.137C277.591 61.245 277.456 61.353 277.186 61.461C277.024 61.515 276.889 61.542 276.781 61.542C275.755 61.65 274.783 61.596 273.865 61.38C273.001 61.164 272.11 60.597 271.192 59.679C270.706 59.193 270.274 58.464 269.896 57.492C269.572 56.52 269.302 55.575 269.086 54.657C268.924 53.739 268.843 52.929 268.843 52.227C268.897 51.525 269.032 51.201 269.248 51.255C269.302 51.201 269.383 51.309 269.491 51.579C269.653 51.849 269.788 52.173 269.896 52.551C270.004 52.875 270.112 53.226 270.22 53.604C270.328 53.928 270.409 54.171 270.463 54.333C270.733 55.197 271.057 55.98 271.435 56.682C271.813 57.384 272.272 58.005 272.812 58.545C274.108 60.057 275.512 60.84 277.024 60.894C277.132 60.894 277.24 60.921 277.348 60.975C277.51 60.975 277.591 61.029 277.591 61.137ZM265.846 26.955C265.846 27.009 265.792 27.063 265.684 27.117C265.63 27.171 265.441 27.252 265.117 27.36C264.415 27.63 263.551 28.089 262.525 28.737C261.499 29.331 260.419 30.087 259.285 31.005C258.151 31.923 257.017 33.003 255.883 34.245C254.803 35.433 253.858 36.729 253.048 38.133C252.238 39.591 251.536 41.022 250.942 42.426C250.402 43.776 249.97 45.045 249.646 46.233C249.322 47.367 249.079 48.339 248.917 49.149C248.809 49.959 248.728 50.499 248.674 50.769C248.62 51.687 248.593 52.605 248.593 53.523C248.593 54.387 248.701 55.197 248.917 55.953C249.187 56.655 249.592 57.195 250.132 57.573C250.672 57.951 251.482 58.059 252.562 57.897C252.67 57.897 252.994 57.789 253.534 57.573C254.128 57.303 254.479 57.195 254.587 57.249C254.641 57.303 254.614 57.411 254.506 57.573C254.398 57.735 254.236 57.924 254.02 58.14C253.804 58.302 253.588 58.464 253.372 58.626C253.21 58.734 253.102 58.815 253.048 58.869C252.562 59.139 252.022 59.355 251.428 59.517C250.834 59.625 250.24 59.625 249.646 59.517C249.106 59.409 248.593 59.193 248.107 58.869C247.621 58.491 247.27 57.978 247.054 57.33C246.46 55.332 246.19 53.388 246.244 51.498C246.352 49.608 246.595 47.745 246.973 45.909C247.351 44.019 247.999 42.129 248.917 40.239C249.457 38.781 250.294 37.269 251.428 35.703C252.616 34.137 253.966 32.706 255.478 31.41C256.99 30.114 258.556 29.034 260.176 28.17C261.85 27.306 263.416 26.847 264.874 26.793C265.09 26.793 265.306 26.793 265.522 26.793C265.738 26.793 265.846 26.847 265.846 26.955ZM355.661 10.836C355.607 11.484 355.445 12.375 355.175 13.509C354.959 14.643 354.689 15.75 354.365 16.83C354.095 17.91 353.798 18.855 353.474 19.665C353.204 20.421 352.961 20.745 352.745 20.637C352.691 20.583 352.664 20.421 352.664 20.151C352.664 19.881 352.664 19.584 352.664 19.26C352.718 18.882 352.745 18.531 352.745 18.207C352.799 17.883 352.853 17.64 352.907 17.478C352.961 17.1 353.042 16.587 353.15 15.939C353.258 15.291 353.339 14.643 353.393 13.995C353.501 13.293 353.582 12.645 353.636 12.051C353.744 11.403 353.825 10.863 353.879 10.431C353.987 9.405 354.041 8.433 354.041 7.51499C354.041 6.597 353.987 5.625 353.879 4.599C353.879 4.491 353.879 4.356 353.879 4.194C353.933 4.032 354.014 3.951 354.122 3.951C354.446 3.951 354.662 4.167 354.77 4.599C355.04 5.355 355.283 6.192 355.499 7.11C355.715 7.974 355.769 9.216 355.661 10.836ZM356.552 5.166C357.362 7.326 357.821 9.621 357.929 12.051C358.091 14.427 358.01 16.83 357.686 19.26C357.362 21.69 356.849 24.093 356.147 26.469C355.499 28.791 354.743 30.978 353.879 33.03C352.745 35.73 351.557 38.403 350.315 41.049C349.073 43.641 347.858 46.206 346.67 48.744C345.482 51.228 344.375 53.658 343.349 56.034C342.377 58.41 341.594 60.732 341 63C340.946 63.162 340.838 63.27 340.676 63.324C340.514 63.432 340.433 63.324 340.433 63C340.325 60.408 340.649 57.789 341.405 55.143C342.215 52.497 343.214 49.851 344.402 47.205C345.644 44.505 346.94 41.805 348.29 39.105C349.694 36.405 350.963 33.651 352.097 30.843C352.799 29.115 353.474 27.171 354.122 25.011C354.77 22.851 355.31 20.637 355.742 18.369C356.174 16.101 356.444 13.833 356.552 11.565C356.66 9.297 356.552 7.218 356.228 5.328C356.12 4.788 356.147 4.599 356.309 4.761L356.39 4.842C356.444 4.896 356.471 4.95 356.471 5.004C356.471 5.058 356.498 5.112 356.552 5.166ZM329.903 13.266C329.849 13.914 329.714 14.697 329.498 15.615C329.336 16.479 329.147 17.316 328.931 18.126C328.715 18.882 328.472 19.53 328.202 20.07C327.986 20.61 327.77 20.826 327.554 20.718C327.5 20.718 327.473 20.583 327.473 20.313C327.473 20.043 327.473 19.746 327.473 19.422C327.527 19.044 327.554 18.693 327.554 18.369C327.608 18.045 327.662 17.802 327.716 17.64C328.04 16.074 328.229 14.427 328.283 12.699C328.391 11.727 328.418 10.836 328.364 10.026C328.364 9.162 328.283 8.217 328.121 7.191C328.121 7.083 328.067 6.867 327.959 6.543C327.905 6.165 327.959 5.976 328.121 5.976C328.229 5.976 328.391 6.138 328.607 6.462L328.931 6.948C329.147 7.434 329.336 7.893 329.498 8.325C329.66 8.757 329.768 9.189 329.822 9.621C329.93 10.053 329.984 10.566 329.984 11.16C329.984 11.754 329.957 12.456 329.903 13.266ZM350.234 28.251C350.396 28.359 350.423 28.629 350.315 29.061C350.207 29.493 350.153 29.79 350.153 29.952C349.937 30.6 349.667 31.383 349.343 32.301C349.073 33.165 348.749 34.083 348.371 35.055C348.047 35.973 347.696 36.864 347.318 37.728C346.994 38.592 346.67 39.321 346.346 39.915C346.184 40.239 345.887 40.887 345.455 41.859C345.077 42.777 344.645 43.911 344.159 45.261C343.673 46.557 343.16 47.988 342.62 49.554C342.08 51.066 341.594 52.551 341.162 54.009C340.73 55.467 340.352 56.817 340.028 58.059C339.704 59.247 339.542 60.192 339.542 60.894C339.542 61.164 339.488 61.353 339.38 61.461C339.326 61.515 339.272 61.515 339.218 61.461C339.164 61.461 339.029 61.353 338.813 61.137C338.543 60.759 338.165 60.3 337.679 59.76C337.193 59.166 336.761 58.572 336.383 57.978C336.059 57.438 335.735 56.736 335.411 55.872C335.087 54.954 334.79 54.063 334.52 53.199C334.25 52.281 334.061 51.498 333.953 50.85C333.845 50.202 333.872 49.824 334.034 49.716C334.088 49.716 334.196 49.851 334.358 50.121C334.52 50.337 334.682 50.607 334.844 50.931C335.006 51.255 335.141 51.579 335.249 51.903C335.411 52.173 335.519 52.362 335.573 52.47C335.951 53.172 336.275 53.874 336.545 54.576C336.869 55.224 337.166 55.899 337.436 56.601C337.706 57.303 338.003 57.924 338.327 58.464C338.651 58.95 338.84 59.166 338.894 59.112C338.948 59.112 338.975 58.977 338.975 58.707C338.975 58.383 338.948 58.032 338.894 57.654C338.894 57.276 338.867 56.925 338.813 56.601C338.813 56.223 338.813 55.953 338.813 55.791C338.705 53.739 338.813 51.876 339.137 50.202C339.515 48.528 340.001 47.016 340.595 45.666C341.783 42.912 343.133 40.131 344.645 37.323C346.211 34.461 347.75 31.815 349.262 29.385C349.37 29.277 349.532 29.061 349.748 28.737C350.018 28.413 350.18 28.251 350.234 28.251ZM338.894 63C336.95 62.028 335.276 60.678 333.872 58.95C332.522 57.168 331.388 55.278 330.47 53.28C329.552 51.228 328.823 49.149 328.283 47.043C327.743 44.937 327.365 42.993 327.149 41.211C327.041 40.401 326.96 39.618 326.906 38.862C326.852 38.052 326.825 37.512 326.825 37.242C325.853 39.51 324.827 41.778 323.747 44.046C322.667 46.314 321.641 48.555 320.669 50.769C319.697 52.929 318.806 55.062 317.996 57.168C317.186 59.22 316.538 61.164 316.052 63C315.998 63.216 315.89 63.405 315.728 63.567C315.566 63.567 315.485 63.378 315.485 63C315.431 60.408 315.782 57.816 316.538 55.224C317.294 52.632 318.239 50.013 319.373 47.367C320.561 44.667 321.83 41.967 323.18 39.267C324.53 36.513 325.772 33.732 326.906 30.924C327.608 29.196 328.229 27.387 328.769 25.497C329.363 23.553 329.849 21.609 330.227 19.665C330.605 17.667 330.821 15.669 330.875 13.671C330.929 11.619 330.794 9.648 330.47 7.758C330.416 7.488 330.362 7.326 330.308 7.272C330.254 7.164 330.281 7.11 330.389 7.11C330.551 7.11 330.686 7.245 330.794 7.51499C331.334 8.973 331.712 10.431 331.928 11.889C332.198 13.293 332.387 14.724 332.495 16.182C333.143 17.37 333.683 18.882 334.115 20.718C334.547 22.5 334.925 24.363 335.249 26.307C335.627 28.251 335.924 30.168 336.14 32.058C336.41 33.948 336.68 35.595 336.95 36.999C337.22 38.241 337.409 39.537 337.517 40.887C337.679 42.237 337.814 43.533 337.922 44.775C338.3 43.263 338.759 41.724 339.299 40.158C339.893 38.592 340.487 37.08 341.081 35.622C341.675 34.11 342.242 32.706 342.782 31.41C343.322 30.114 343.808 28.98 344.24 28.008C344.726 26.82 345.293 25.497 345.941 24.039C346.589 22.581 347.237 21.15 347.885 19.746C348.587 18.342 349.262 17.019 349.91 15.777C350.612 14.481 351.233 13.401 351.773 12.537C352.043 12.159 352.259 11.862 352.421 11.646C352.637 11.376 352.799 11.268 352.907 11.322C353.015 11.43 353.015 11.619 352.907 11.889C352.853 12.105 352.772 12.348 352.664 12.618C352.124 14.562 351.476 16.614 350.72 18.774C349.964 20.88 349.154 23.013 348.29 25.173C347.426 27.333 346.535 29.466 345.617 31.572C344.753 33.678 343.889 35.676 343.025 37.566C342.107 39.672 341.135 41.805 340.109 43.965C339.083 46.125 338.354 48.501 337.922 51.093C337.814 51.687 337.679 52.065 337.517 52.227C337.409 52.335 337.22 51.93 336.95 51.012C335.6 45.936 334.628 40.86 334.034 35.784C333.44 30.654 332.765 25.497 332.009 20.313C331.847 21.879 331.712 23.202 331.604 24.282C331.496 25.362 331.496 26.658 331.604 28.17C331.712 30.114 331.847 32.058 332.009 34.002C332.171 35.892 332.279 37.674 332.333 39.348C332.333 39.51 332.306 39.861 332.252 40.401C332.252 40.941 332.171 41.211 332.009 41.211C331.955 41.265 331.901 41.238 331.847 41.13C331.793 40.968 331.712 40.779 331.604 40.563C331.55 40.347 331.469 40.158 331.361 39.996C331.307 39.78 331.28 39.618 331.28 39.51C331.01 38.43 330.713 37.107 330.389 35.541C330.065 33.975 329.768 32.436 329.498 30.924C329.066 32.274 328.796 33.651 328.688 35.055C328.58 36.405 328.688 38.052 329.012 39.996C329.39 42.048 329.876 44.154 330.47 46.314C331.064 48.42 331.766 50.472 332.576 52.47C333.44 54.468 334.412 56.358 335.492 58.14C336.572 59.922 337.787 61.461 339.137 62.757C339.299 62.865 339.353 62.946 339.299 63C339.245 63.108 339.11 63.108 338.894 63ZM327.149 13.752C327.257 13.86 327.257 14.049 327.149 14.319C327.041 14.589 326.96 14.832 326.906 15.048C326.528 16.992 325.988 18.936 325.286 20.88C324.638 22.77 323.909 24.66 323.099 26.55C322.289 28.386 321.425 30.249 320.507 32.139C319.643 33.975 318.779 35.838 317.915 37.728C316.997 39.78 316.052 41.886 315.08 44.046C314.162 46.206 313.46 48.609 312.974 51.255C312.866 51.795 312.758 52.146 312.65 52.308C312.542 52.47 312.353 52.065 312.083 51.093C311.057 47.421 310.247 43.668 309.653 39.834C309.113 35.946 308.627 32.004 308.195 28.008C307.925 25.2 307.547 22.338 307.061 19.422C306.575 16.452 305.873 13.401 304.955 10.269C304.901 9.945 304.901 9.756 304.955 9.702C305.009 9.648 305.09 9.702 305.198 9.864C305.306 9.972 305.414 10.08 305.522 10.188C306.17 10.944 306.764 12.024 307.304 13.428C307.844 14.778 308.33 16.29 308.762 17.964C309.194 19.584 309.572 21.312 309.896 23.148C310.22 24.984 310.517 26.766 310.787 28.494C311.057 30.222 311.273 31.842 311.435 33.354C311.651 34.866 311.867 36.135 312.083 37.161C312.299 38.403 312.461 39.699 312.569 41.049C312.731 42.345 312.866 43.641 312.974 44.937C313.352 43.425 313.811 41.913 314.351 40.401C314.945 38.835 315.539 37.323 316.133 35.865C316.781 34.407 317.375 33.03 317.915 31.734C318.509 30.438 318.995 29.331 319.373 28.413C320.399 25.929 321.506 23.472 322.694 21.042C323.936 18.612 325.124 16.533 326.258 14.805C326.42 14.535 326.582 14.292 326.744 14.076C326.906 13.806 327.041 13.698 327.149 13.752ZM307.385 39.51C307.439 39.672 307.439 40.023 307.385 40.563C307.331 41.103 307.25 41.373 307.142 41.373C307.034 41.427 306.926 41.211 306.818 40.725C306.71 40.185 306.602 39.807 306.494 39.591C306.332 38.889 306.116 38.025 305.846 36.999C305.63 35.973 305.387 34.92 305.117 33.84C304.901 32.76 304.685 31.707 304.469 30.681C304.307 29.655 304.199 28.764 304.145 28.008C304.091 27.63 303.983 26.901 303.821 25.821C303.713 24.687 303.524 23.364 303.254 21.852C303.038 20.286 302.768 18.639 302.444 16.911C302.12 15.183 301.769 13.509 301.391 11.889C301.067 10.269 300.716 8.838 300.338 7.596C300.014 6.3 299.663 5.355 299.285 4.761C298.961 4.329 298.88 4.059 299.042 3.951C299.15 3.843 299.285 3.87 299.447 4.032C299.609 4.194 299.744 4.329 299.852 4.437C300.608 5.085 301.31 6.003 301.958 7.191C302.66 8.379 303.281 9.675 303.821 11.079C304.415 12.429 304.901 13.806 305.279 15.21C305.657 16.614 305.927 17.883 306.089 19.017C306.521 22.257 306.818 25.713 306.98 29.385C307.196 33.003 307.331 36.378 307.385 39.51ZM325.124 28.413C325.286 28.467 325.313 28.71 325.205 29.142C325.097 29.574 325.016 29.871 324.962 30.033C324.746 30.681 324.476 31.464 324.152 32.382C323.882 33.246 323.558 34.164 323.18 35.136C322.856 36.054 322.505 36.945 322.127 37.809C321.803 38.673 321.479 39.402 321.155 39.996C320.939 40.428 320.507 41.508 319.859 43.236C319.265 44.964 318.617 46.935 317.915 49.149C317.213 51.309 316.538 53.496 315.89 55.71C315.296 57.87 314.918 59.625 314.756 60.975C314.702 61.353 314.621 61.542 314.513 61.542C314.351 61.596 314.135 61.488 313.865 61.218C313.595 60.894 313.217 60.462 312.731 59.922C312.245 59.328 311.84 58.734 311.516 58.14C311.246 57.6 310.922 56.871 310.544 55.953C310.22 55.035 309.923 54.144 309.653 53.28C309.383 52.362 309.194 51.579 309.086 50.931C308.978 50.229 309.005 49.851 309.167 49.797C309.221 49.797 309.302 49.932 309.41 50.202C309.572 50.418 309.734 50.715 309.896 51.093C310.058 51.417 310.193 51.741 310.301 52.065C310.463 52.389 310.598 52.605 310.706 52.713C311.03 53.415 311.327 54.09 311.597 54.738C311.867 55.332 312.137 55.98 312.407 56.682C312.677 57.438 312.974 58.086 313.298 58.626C313.676 59.112 313.892 59.301 313.946 59.193C313.946 59.193 313.946 59.058 313.946 58.788C313.946 58.464 313.919 58.14 313.865 57.816C313.811 57.438 313.757 57.06 313.703 56.682C313.703 56.304 313.703 56.034 313.703 55.872C313.703 53.82 313.865 51.984 314.189 50.364C314.567 48.69 315.026 47.178 315.566 45.828C316.7 43.074 318.023 40.293 319.535 37.485C321.101 34.623 322.613 31.95 324.071 29.466C324.179 29.358 324.341 29.169 324.557 28.899C324.827 28.575 325.016 28.413 325.124 28.413ZM301.715 39.915C301.175 36.675 300.77 33.381 300.5 30.033C300.23 26.685 299.96 23.418 299.69 20.232C299.42 17.046 299.042 13.995 298.556 11.079C298.124 8.163 297.476 5.49 296.612 3.06C296.558 2.952 296.504 2.871 296.45 2.817C296.45 2.709 296.504 2.601 296.612 2.493C296.666 2.439 296.747 2.493 296.855 2.65499C296.963 2.817 297.044 2.952 297.098 3.06C298.556 5.328 299.636 7.947 300.338 10.917C301.094 13.833 301.661 16.938 302.039 20.232C302.417 23.472 302.714 26.793 302.93 30.195C303.2 33.597 303.605 36.918 304.145 40.158C304.469 42.21 304.928 44.289 305.522 46.395C306.17 48.501 306.926 50.553 307.79 52.551C308.654 54.495 309.626 56.358 310.706 58.14C311.786 59.922 312.974 61.488 314.27 62.838C314.324 62.892 314.324 62.946 314.27 63C314.216 63.108 314.081 63.108 313.865 63C312.083 61.866 310.517 60.489 309.167 58.869C307.817 57.195 306.656 55.359 305.684 53.361C304.712 51.309 303.902 49.149 303.254 46.881C302.606 44.613 302.093 42.291 301.715 39.915ZM386.351 34.488C385.919 36.648 385.19 38.808 384.164 40.968C383.138 43.128 382.166 45.153 381.248 47.043C381.194 47.151 381.059 47.34 380.843 47.61C380.681 47.88 380.546 48.015 380.438 48.015C380.276 47.961 380.195 47.799 380.195 47.529C380.195 47.205 380.195 46.989 380.195 46.881C380.249 46.395 380.33 45.828 380.438 45.18C380.6 44.478 380.735 43.776 380.843 43.074C380.951 42.318 381.059 41.616 381.167 40.968C381.329 40.266 381.491 39.645 381.653 39.105C382.139 37.269 382.544 35.703 382.868 34.407C383.192 33.057 383.435 31.842 383.597 30.762C383.759 29.682 383.84 28.656 383.84 27.684C383.894 26.712 383.84 25.659 383.678 24.525C383.624 24.093 383.651 23.823 383.759 23.715C383.867 23.661 384.002 23.715 384.164 23.877C384.326 24.039 384.461 24.201 384.569 24.363C385.487 25.821 386.108 27.441 386.432 29.223C386.756 30.951 386.729 32.706 386.351 34.488ZM388.295 29.061C388.997 30.087 389.348 31.437 389.348 33.111C389.348 34.785 389.186 36.513 388.862 38.295C388.538 40.023 388.133 41.697 387.647 43.317C387.161 44.937 386.81 46.233 386.594 47.205C386.162 49.095 385.568 50.985 384.812 52.875C384.056 54.765 383.408 56.439 382.868 57.897C382.814 58.059 382.733 58.248 382.625 58.464C382.517 58.626 382.409 58.707 382.301 58.707C382.193 58.707 382.139 58.599 382.139 58.383C382.139 58.167 382.139 57.978 382.139 57.816C381.977 54.846 382.301 51.957 383.111 49.149C383.921 46.287 384.785 43.398 385.703 40.482C386.243 38.7 386.756 36.891 387.242 35.055C387.728 33.165 387.944 31.113 387.89 28.899C387.89 28.683 387.917 28.575 387.971 28.575L388.295 29.061ZM380.681 27.684C377.387 29.034 374.579 30.978 372.257 33.516C369.989 36 368.234 38.808 366.992 41.94C366.452 43.344 366.047 44.613 365.777 45.747C365.507 46.827 365.291 48.015 365.129 49.311C365.075 49.581 365.156 49.851 365.372 50.121C365.588 50.391 365.804 50.391 366.02 50.121C366.992 48.933 368.234 47.421 369.746 45.585C371.258 43.749 372.77 41.805 374.282 39.753C375.794 37.701 377.144 35.622 378.332 33.516C379.574 31.41 380.357 29.466 380.681 27.684ZM375.254 55.143C374.444 56.277 373.661 57.33 372.905 58.302C372.149 59.274 371.312 60.138 370.394 60.894C369.476 61.596 368.45 62.163 367.316 62.595C366.182 63.027 364.886 63.27 363.428 63.324C360.998 63.432 359.135 62.811 357.839 61.461C356.597 60.111 355.733 58.464 355.247 56.52C354.761 54.576 354.572 52.578 354.68 50.526C354.842 48.42 355.139 46.692 355.571 45.342C356.165 43.452 356.867 41.67 357.677 39.996C358.541 38.268 359.432 36.729 360.35 35.379C361.322 33.975 362.294 32.787 363.266 31.815C364.292 30.789 365.291 30.006 366.263 29.466C366.317 29.466 366.425 29.412 366.587 29.304C366.803 29.196 366.911 29.223 366.911 29.385C366.965 29.385 366.938 29.466 366.83 29.628C366.722 29.79 366.614 29.925 366.506 30.033C363.698 32.949 361.457 36.243 359.783 39.915C358.163 43.587 357.245 47.367 357.029 51.255C356.975 52.227 357.002 53.28 357.11 54.414C357.272 55.548 357.542 56.628 357.92 57.654C358.352 58.626 358.946 59.463 359.702 60.165C360.458 60.813 361.484 61.137 362.78 61.137C363.806 61.137 364.751 60.975 365.615 60.651C366.479 60.273 367.289 59.814 368.045 59.274C368.801 58.68 369.476 58.059 370.07 57.411C370.718 56.709 371.285 56.061 371.771 55.467C372.851 54.117 373.85 52.713 374.768 51.255C374.768 50.175 374.822 49.122 374.93 48.096C375.092 47.07 375.308 46.044 375.578 45.018C375.74 44.262 375.875 43.668 375.983 43.236C376.145 42.75 376.28 42.318 376.388 41.94C376.55 41.508 376.685 41.076 376.793 40.644C376.955 40.158 377.171 39.537 377.441 38.781C376.577 40.293 375.713 41.724 374.849 43.074C374.039 44.37 373.148 45.639 372.176 46.881C371.258 48.069 370.286 49.257 369.26 50.445C368.288 51.579 367.208 52.74 366.02 53.928C365.102 54.846 364.346 55.143 363.752 54.819C363.158 54.495 362.807 53.739 362.699 52.551C362.591 50.715 362.672 48.933 362.942 47.205C363.266 45.477 363.806 43.668 364.562 41.778C365.264 40.05 366.128 38.376 367.154 36.756C368.234 35.136 369.449 33.678 370.799 32.382C372.203 31.032 373.742 29.898 375.416 28.98C377.09 28.008 378.872 27.36 380.762 27.036C380.87 26.442 380.951 25.929 381.005 25.497C381.113 25.065 381.194 24.633 381.248 24.201C381.356 23.607 381.41 23.31 381.41 23.31C381.518 23.256 381.626 23.31 381.734 23.472C381.896 23.634 382.031 23.85 382.139 24.12C382.787 25.902 383.003 27.684 382.787 29.466C382.571 31.248 382.166 33.057 381.572 34.893C381.032 36.729 380.384 38.619 379.628 40.563C378.872 42.453 378.251 44.37 377.765 46.314C377.117 49.068 376.928 51.93 377.198 54.9C377.522 57.816 378.683 60.462 380.681 62.838C380.843 63.054 380.924 63.162 380.924 63.162C380.87 63.216 380.708 63.162 380.438 63C378.872 62.028 377.684 60.867 376.874 59.517C376.118 58.113 375.578 56.655 375.254 55.143ZM378.089 26.469C378.197 26.577 378.17 26.658 378.008 26.712C377.9 26.766 377.63 26.847 377.198 26.955C376.496 27.171 375.632 27.576 374.606 28.17C373.634 28.764 372.581 29.52 371.447 30.438C370.367 31.356 369.287 32.436 368.207 33.678C367.127 34.866 366.182 36.162 365.372 37.566C364.562 39.024 363.86 40.455 363.266 41.859C362.726 43.263 362.267 44.559 361.889 45.747C361.565 46.881 361.322 47.88 361.16 48.744C360.998 49.554 360.917 50.121 360.917 50.445C360.917 51.255 360.917 52.119 360.917 53.037C360.917 53.901 361.025 54.684 361.241 55.386C361.457 56.088 361.835 56.628 362.375 57.006C362.915 57.384 363.725 57.492 364.805 57.33C364.859 57.33 364.994 57.303 365.21 57.249C365.426 57.141 365.642 57.06 365.858 57.006C366.074 56.898 366.263 56.817 366.425 56.763C366.641 56.709 366.776 56.682 366.83 56.682C366.884 56.79 366.83 56.925 366.668 57.087C366.56 57.249 366.398 57.438 366.182 57.654C365.966 57.816 365.75 57.978 365.534 58.14C365.372 58.302 365.264 58.41 365.21 58.464C363.86 59.274 362.726 59.517 361.808 59.193C360.89 58.869 360.161 58.275 359.621 57.411C359.135 56.493 358.784 55.44 358.568 54.252C358.406 53.01 358.352 51.903 358.406 50.931C358.514 49.041 358.811 47.178 359.297 45.342C359.783 43.452 360.404 41.562 361.16 39.672C361.754 38.214 362.645 36.729 363.833 35.217C365.021 33.651 366.344 32.22 367.802 30.924C369.314 29.628 370.88 28.575 372.5 27.765C374.12 26.901 375.686 26.442 377.198 26.388C377.738 26.388 378.035 26.415 378.089 26.469ZM382.868 62.838C382.976 63 383.003 63.108 382.949 63.162C382.787 63.162 382.571 63.108 382.301 63C382.139 62.892 381.707 62.568 381.005 62.028C380.303 61.488 379.79 60.624 379.466 59.436C379.358 59.004 379.25 58.464 379.142 57.816C379.088 57.114 379.061 56.466 379.061 55.872C379.061 55.278 379.088 54.765 379.142 54.333C379.25 53.901 379.385 53.685 379.547 53.685C379.709 53.685 379.871 54.009 380.033 54.657C380.249 55.305 380.384 55.71 380.438 55.872C380.6 56.628 380.735 57.303 380.843 57.897C381.005 58.437 381.167 58.95 381.329 59.436C381.545 60.03 381.815 60.705 382.139 61.461C382.517 62.217 382.76 62.676 382.868 62.838ZM405.506 20.799C405.83 19.611 406.046 18.18 406.154 16.506C406.262 14.778 406.262 13.077 406.154 11.403C406.046 9.675 405.776 8.055 405.344 6.543C404.966 5.031 404.372 3.87 403.562 3.06C403.238 2.736 402.968 2.628 402.752 2.736C402.59 2.844 402.644 3.114 402.914 3.546C403.454 4.518 403.697 6.03 403.643 8.082C403.643 10.08 403.481 12.267 403.157 14.643C402.833 17.019 402.401 19.395 401.861 21.771C401.321 24.147 400.781 26.226 400.241 28.008C399.971 28.764 399.701 29.709 399.431 30.843C399.161 31.977 398.864 33.138 398.54 34.326C398.27 35.46 398.027 36.594 397.811 37.728C397.595 38.808 397.433 39.726 397.325 40.482C397.325 40.644 397.298 40.968 397.244 41.454C397.19 41.886 397.244 42.156 397.406 42.264C397.514 42.264 397.676 42.048 397.892 41.616C398.108 41.13 398.243 40.833 398.297 40.725C399.593 37.701 400.916 34.488 402.266 31.086C403.616 27.63 404.696 24.201 405.506 20.799ZM403.643 40.563C403.913 39.591 404.291 38.322 404.777 36.756C405.263 35.19 405.749 33.489 406.235 31.653C406.721 29.763 407.18 27.819 407.612 25.821C408.098 23.769 408.449 21.798 408.665 19.908C408.935 17.964 409.016 16.182 408.908 14.562C408.854 12.942 408.584 11.619 408.098 10.593C408.044 10.431 407.936 10.269 407.774 10.107C407.612 9.945 407.531 10.08 407.531 10.512C407.639 13.968 407.288 17.424 406.478 20.88C405.668 24.336 404.804 27.468 403.886 30.276C403.184 32.49 402.455 34.704 401.699 36.918C400.997 39.132 400.376 41.346 399.836 43.56C399.35 45.72 399.026 47.853 398.864 49.959C398.756 52.065 398.972 54.09 399.512 56.034C399.728 56.736 399.917 57.087 400.079 57.087C400.241 57.033 400.322 56.682 400.322 56.034C400.322 55.062 400.403 53.982 400.565 52.794C400.781 51.552 401.051 50.256 401.375 48.906C401.699 47.556 402.05 46.179 402.428 44.775C402.806 43.317 403.211 41.913 403.643 40.563ZM402.104 62.757C400.214 62.541 398.513 61.596 397.001 59.922C395.543 58.248 394.571 56.196 394.085 53.766C393.599 51.444 393.464 49.095 393.68 46.719C393.95 44.289 394.382 42.021 394.976 39.915C395.84 36.675 396.866 33.354 398.054 29.952C399.242 26.496 400.241 23.094 401.051 19.746C401.915 16.398 402.401 13.185 402.509 10.107C402.617 6.975 402.077 4.113 400.889 1.52099C400.781 1.467 400.7 1.359 400.646 1.197C400.592 0.980999 400.511 0.899998 400.403 0.953997C400.241 0.953997 400.214 1.143 400.322 1.52099C400.754 4.005 400.781 6.705 400.403 9.621C400.025 12.483 399.404 15.48 398.54 18.612C397.73 21.69 396.785 24.876 395.705 28.17C394.679 31.464 393.707 34.758 392.789 38.052C392.087 40.482 391.601 43.074 391.331 45.828C391.115 48.528 391.304 51.255 391.898 54.009C392.222 55.413 392.708 56.682 393.356 57.816C394.058 58.95 394.868 59.922 395.786 60.732C396.704 61.488 397.703 62.082 398.783 62.514C399.863 62.946 400.97 63.135 402.104 63.081H402.347C402.401 63.081 402.482 63.054 402.59 63C402.59 62.838 402.428 62.757 402.104 62.757ZM399.674 58.707C398.702 57.573 397.919 56.115 397.325 54.333C397.271 54.171 397.19 53.928 397.082 53.604C396.974 53.226 396.866 52.875 396.758 52.551C396.65 52.173 396.542 51.849 396.434 51.579C396.326 51.255 396.245 51.093 396.191 51.093C395.975 51.093 395.867 51.444 395.867 52.146C395.867 52.848 395.948 53.658 396.11 54.576C396.272 55.494 396.515 56.439 396.839 57.411C397.163 58.329 397.541 59.058 397.973 59.598C398.837 60.57 399.701 61.164 400.565 61.38C401.483 61.596 402.401 61.704 403.319 61.704C403.643 61.704 403.886 61.623 404.048 61.461C404.264 61.245 404.129 61.083 403.643 60.975C402.077 60.813 400.754 60.057 399.674 58.707ZM422.354 20.799C422.678 19.611 422.894 18.18 423.002 16.506C423.11 14.778 423.11 13.077 423.002 11.403C422.894 9.675 422.624 8.055 422.192 6.543C421.814 5.031 421.22 3.87 420.41 3.06C420.086 2.736 419.816 2.628 419.6 2.736C419.438 2.844 419.492 3.114 419.762 3.546C420.302 4.518 420.545 6.03 420.491 8.082C420.491 10.08 420.329 12.267 420.005 14.643C419.681 17.019 419.249 19.395 418.709 21.771C418.169 24.147 417.629 26.226 417.089 28.008C416.819 28.764 416.549 29.709 416.279 30.843C416.009 31.977 415.712 33.138 415.388 34.326C415.118 35.46 414.875 36.594 414.659 37.728C414.443 38.808 414.281 39.726 414.173 40.482C414.173 40.644 414.146 40.968 414.092 41.454C414.038 41.886 414.092 42.156 414.254 42.264C414.362 42.264 414.524 42.048 414.74 41.616C414.956 41.13 415.091 40.833 415.145 40.725C416.441 37.701 417.764 34.488 419.114 31.086C420.464 27.63 421.544 24.201 422.354 20.799ZM420.491 40.563C420.761 39.591 421.139 38.322 421.625 36.756C422.111 35.19 422.597 33.489 423.083 31.653C423.569 29.763 424.028 27.819 424.46 25.821C424.946 23.769 425.297 21.798 425.513 19.908C425.783 17.964 425.864 16.182 425.756 14.562C425.702 12.942 425.432 11.619 424.946 10.593C424.892 10.431 424.784 10.269 424.622 10.107C424.46 9.945 424.379 10.08 424.379 10.512C424.487 13.968 424.136 17.424 423.326 20.88C422.516 24.336 421.652 27.468 420.734 30.276C420.032 32.49 419.303 34.704 418.547 36.918C417.845 39.132 417.224 41.346 416.684 43.56C416.198 45.72 415.874 47.853 415.712 49.959C415.604 52.065 415.82 54.09 416.36 56.034C416.576 56.736 416.765 57.087 416.927 57.087C417.089 57.033 417.17 56.682 417.17 56.034C417.17 55.062 417.251 53.982 417.413 52.794C417.629 51.552 417.899 50.256 418.223 48.906C418.547 47.556 418.898 46.179 419.276 44.775C419.654 43.317 420.059 41.913 420.491 40.563ZM418.952 62.757C417.062 62.541 415.361 61.596 413.849 59.922C412.391 58.248 411.419 56.196 410.933 53.766C410.447 51.444 410.312 49.095 410.528 46.719C410.798 44.289 411.23 42.021 411.824 39.915C412.688 36.675 413.714 33.354 414.902 29.952C416.09 26.496 417.089 23.094 417.899 19.746C418.763 16.398 419.249 13.185 419.357 10.107C419.465 6.975 418.925 4.113 417.737 1.52099C417.629 1.467 417.548 1.359 417.494 1.197C417.44 0.980999 417.359 0.899998 417.251 0.953997C417.089 0.953997 417.062 1.143 417.17 1.52099C417.602 4.005 417.629 6.705 417.251 9.621C416.873 12.483 416.252 15.48 415.388 18.612C414.578 21.69 413.633 24.876 412.553 28.17C411.527 31.464 410.555 34.758 409.637 38.052C408.935 40.482 408.449 43.074 408.179 45.828C407.963 48.528 408.152 51.255 408.746 54.009C409.07 55.413 409.556 56.682 410.204 57.816C410.906 58.95 411.716 59.922 412.634 60.732C413.552 61.488 414.551 62.082 415.631 62.514C416.711 62.946 417.818 63.135 418.952 63.081H419.195C419.249 63.081 419.33 63.054 419.438 63C419.438 62.838 419.276 62.757 418.952 62.757ZM416.522 58.707C415.55 57.573 414.767 56.115 414.173 54.333C414.119 54.171 414.038 53.928 413.93 53.604C413.822 53.226 413.714 52.875 413.606 52.551C413.498 52.173 413.39 51.849 413.282 51.579C413.174 51.255 413.093 51.093 413.039 51.093C412.823 51.093 412.715 51.444 412.715 52.146C412.715 52.848 412.796 53.658 412.958 54.576C413.12 55.494 413.363 56.439 413.687 57.411C414.011 58.329 414.389 59.058 414.821 59.598C415.685 60.57 416.549 61.164 417.413 61.38C418.331 61.596 419.249 61.704 420.167 61.704C420.491 61.704 420.734 61.623 420.896 61.461C421.112 61.245 420.977 61.083 420.491 60.975C418.925 60.813 417.602 60.057 416.522 58.707Z" fill="url(#paint0_radial_8_19)"/>
</g>
<defs>
<filter id="filter0_di_8_19" x="0.810059" y="0.873047" width="429.108" height="70.6938" filterUnits="userSpaceOnUse" color-interpolation-filters="sRGB">
<feFlood flood-opacity="0" result="BackgroundImageFix"/>
<feColorMatrix in="SourceAlpha" type="matrix" values="0 0 0 0 0 0 0 0 0 0 0 0 0 0 0 0 0 0 127 0" result="hardAlpha"/>
<feOffset dy="4"/>
<feGaussianBlur stdDeviation="2"/>
<feComposite in2="hardAlpha" operator="out"/>
<feColorMatrix type="matrix" values="0 0 0 0 0 0 0 0 0 0 0 0 0 0 0 0 0 0 0.25 0"/>
<feBlend mode="normal" in2="BackgroundImageFix" result="effect1_dropShadow_8_19"/>
<feBlend mode="normal" in="SourceGraphic" in2="effect1_dropShadow_8_19" result="shape"/>
<feColorMatrix in="SourceAlpha" type="matrix" values="0 0 0 0 0 0 0 0 0 0 0 0 0 0 0 0 0 0 127 0" result="hardAlpha"/>
<feOffset dx="1" dy="1"/>
<feComposite in2="hardAlpha" operator="arithmetic" k2="-1" k3="1"/>
<feColorMatrix type="matrix" values="0 0 0 0 1 0 0 0 0 1 0 0 0 0 1 0 0 0 1 0"/>
<feBlend mode="overlay" in2="shape" result="effect2_innerShadow_8_19"/>
</filter>
<radialGradient id="paint0_radial_8_19" cx="0" cy="0" r="1" gradientUnits="userSpaceOnUse" gradientTransform="translate(435.496 -2.99993) rotate(167.285) scale(469.473 1656.07)">
<stop stop-color="#FF0000"/>
<stop offset="0.25" stop-color="#FFF500"/>
<stop offset="0.453125" stop-color="#00FF19"/>
<stop offset="0.651042" stop-color="#001AFF"/>
<stop offset="0.859375" stop-color="#FF00E5"/>
</radialGradient>
</defs>
</svg>
